<svg width="1363" height="163" viewBox="0 0 1363 163" fill="none" xmlns="http://www.w3.org/2000/svg">
<path d="M0 15C0 6.71573 6.71573 0 15 0H37V163H15C6.71573 163 0 156.284 0 148V15Z" fill="#424242"/>
<rect width="1097" height="163" transform="translate(37)" fill="#F0F0F0"/>
<path d="M101.906 53.9219L94.3945 51.2383V48.0859L104.602 52.375V54.6367L101.906 53.9219ZM94.3945 56.1719L101.918 53.4297L104.602 52.7852V55.0352L94.3945 59.3242V56.1719ZM122.789 55.3398H126.293C126.223 56.4883 125.906 57.5078 125.344 58.3984C124.789 59.2891 124.012 59.9844 123.012 60.4844C122.02 60.9844 120.824 61.2344 119.426 61.2344C118.332 61.2344 117.352 61.0469 116.484 60.6719C115.617 60.2891 114.875 59.7422 114.258 59.0312C113.648 58.3203 113.184 57.4609 112.863 56.4531C112.543 55.4453 112.383 54.3164 112.383 53.0664V51.8828C112.383 50.6328 112.547 49.5039 112.875 48.4961C113.211 47.4805 113.688 46.6172 114.305 45.9062C114.93 45.1953 115.676 44.6484 116.543 44.2656C117.41 43.8828 118.379 43.6914 119.449 43.6914C120.871 43.6914 122.07 43.9492 123.047 44.4648C124.031 44.9805 124.793 45.6914 125.332 46.5977C125.879 47.5039 126.207 48.5352 126.316 49.6914H122.801C122.762 49.0039 122.625 48.4219 122.391 47.9453C122.156 47.4609 121.801 47.0977 121.324 46.8555C120.855 46.6055 120.23 46.4805 119.449 46.4805C118.863 46.4805 118.352 46.5898 117.914 46.8086C117.477 47.0273 117.109 47.3594 116.812 47.8047C116.516 48.25 116.293 48.8125 116.145 49.4922C116.004 50.1641 115.934 50.9531 115.934 51.8594V53.0664C115.934 53.9492 116 54.7266 116.133 55.3984C116.266 56.0625 116.469 56.625 116.742 57.0859C117.023 57.5391 117.383 57.8828 117.82 58.1172C118.266 58.3438 118.801 58.457 119.426 58.457C120.16 58.457 120.766 58.3398 121.242 58.1055C121.719 57.8711 122.082 57.5234 122.332 57.0625C122.59 56.6016 122.742 56.0273 122.789 55.3398ZM127.852 54.7891V54.543C127.852 53.6133 127.984 52.7578 128.25 51.9766C128.516 51.1875 128.902 50.5039 129.41 49.9258C129.918 49.3477 130.543 48.8984 131.285 48.5781C132.027 48.25 132.879 48.0859 133.84 48.0859C134.801 48.0859 135.656 48.25 136.406 48.5781C137.156 48.8984 137.785 49.3477 138.293 49.9258C138.809 50.5039 139.199 51.1875 139.465 51.9766C139.73 52.7578 139.863 53.6133 139.863 54.543V54.7891C139.863 55.7109 139.73 56.5664 139.465 57.3555C139.199 58.1367 138.809 58.8203 138.293 59.4062C137.785 59.9844 137.16 60.4336 136.418 60.7539C135.676 61.0742 134.824 61.2344 133.863 61.2344C132.902 61.2344 132.047 61.0742 131.297 60.7539C130.555 60.4336 129.926 59.9844 129.41 59.4062C128.902 58.8203 128.516 58.1367 128.25 57.3555C127.984 56.5664 127.852 55.7109 127.852 54.7891ZM131.227 54.543V54.7891C131.227 55.3203 131.273 55.8164 131.367 56.2773C131.461 56.7383 131.609 57.1445 131.812 57.4961C132.023 57.8398 132.297 58.1094 132.633 58.3047C132.969 58.5 133.379 58.5977 133.863 58.5977C134.332 58.5977 134.734 58.5 135.07 58.3047C135.406 58.1094 135.676 57.8398 135.879 57.4961C136.082 57.1445 136.23 56.7383 136.324 56.2773C136.426 55.8164 136.477 55.3203 136.477 54.7891V54.543C136.477 54.0273 136.426 53.543 136.324 53.0898C136.23 52.6289 136.078 52.2227 135.867 51.8711C135.664 51.5117 135.395 51.2305 135.059 51.0273C134.723 50.8242 134.316 50.7227 133.84 50.7227C133.363 50.7227 132.957 50.8242 132.621 51.0273C132.293 51.2305 132.023 51.5117 131.812 51.8711C131.609 52.2227 131.461 52.6289 131.367 53.0898C131.273 53.543 131.227 54.0273 131.227 54.543ZM145.312 50.9453V61H141.926V48.3203H145.102L145.312 50.9453ZM144.844 54.2148H143.906C143.906 53.332 144.012 52.5195 144.223 51.7773C144.441 51.0273 144.758 50.3789 145.172 49.832C145.594 49.2773 146.113 48.8477 146.73 48.543C147.348 48.2383 148.062 48.0859 148.875 48.0859C149.438 48.0859 149.953 48.1719 150.422 48.3438C150.891 48.5078 151.293 48.7695 151.629 49.1289C151.973 49.4805 152.238 49.9414 152.426 50.5117C152.613 51.0742 152.707 51.75 152.707 52.5391V61H149.332V52.9141C149.332 52.3359 149.254 51.8906 149.098 51.5781C148.941 51.2656 148.719 51.0469 148.43 50.9219C148.148 50.7969 147.809 50.7344 147.41 50.7344C146.973 50.7344 146.59 50.8242 146.262 51.0039C145.941 51.1836 145.676 51.4336 145.465 51.7539C145.254 52.0664 145.098 52.4336 144.996 52.8555C144.895 53.2773 144.844 53.7305 144.844 54.2148ZM152.391 53.8281L151.184 53.9805C151.184 53.1523 151.285 52.3828 151.488 51.6719C151.699 50.9609 152.008 50.3359 152.414 49.7969C152.828 49.2578 153.34 48.8398 153.949 48.543C154.559 48.2383 155.262 48.0859 156.059 48.0859C156.668 48.0859 157.223 48.1758 157.723 48.3555C158.223 48.5273 158.648 48.8047 159 49.1875C159.359 49.5625 159.633 50.0547 159.82 50.6641C160.016 51.2734 160.113 52.0195 160.113 52.9023V61H156.727V52.9023C156.727 52.3164 156.648 51.8711 156.492 51.5664C156.344 51.2539 156.125 51.0391 155.836 50.9219C155.555 50.7969 155.219 50.7344 154.828 50.7344C154.422 50.7344 154.066 50.8164 153.762 50.9805C153.457 51.1367 153.203 51.3555 153 51.6367C152.797 51.918 152.645 52.2461 152.543 52.6211C152.441 52.9883 152.391 53.3906 152.391 53.8281ZM166.289 48.3203V61H162.902V48.3203H166.289ZM162.691 45.0156C162.691 44.5234 162.863 44.1172 163.207 43.7969C163.551 43.4766 164.012 43.3164 164.59 43.3164C165.16 43.3164 165.617 43.4766 165.961 43.7969C166.312 44.1172 166.488 44.5234 166.488 45.0156C166.488 45.5078 166.312 45.9141 165.961 46.2344C165.617 46.5547 165.16 46.7148 164.59 46.7148C164.012 46.7148 163.551 46.5547 163.207 46.2344C162.863 45.9141 162.691 45.5078 162.691 45.0156ZM174.316 58.5977C174.73 58.5977 175.098 58.5195 175.418 58.3633C175.738 58.1992 175.988 57.9727 176.168 57.6836C176.355 57.3867 176.453 57.0391 176.461 56.6406H179.637C179.629 57.5312 179.391 58.3242 178.922 59.0195C178.453 59.707 177.824 60.25 177.035 60.6484C176.246 61.0391 175.363 61.2344 174.387 61.2344C173.402 61.2344 172.543 61.0703 171.809 60.7422C171.082 60.4141 170.477 59.9609 169.992 59.3828C169.508 58.7969 169.145 58.1172 168.902 57.3438C168.66 56.5625 168.539 55.7266 168.539 54.8359V54.4961C168.539 53.5977 168.66 52.7617 168.902 51.9883C169.145 51.207 169.508 50.5273 169.992 49.9492C170.477 49.3633 171.082 48.9062 171.809 48.5781C172.535 48.25 173.387 48.0859 174.363 48.0859C175.402 48.0859 176.312 48.2852 177.094 48.6836C177.883 49.082 178.5 49.6523 178.945 50.3945C179.398 51.1289 179.629 52 179.637 53.0078H176.461C176.453 52.5859 176.363 52.2031 176.191 51.8594C176.027 51.5156 175.785 51.2422 175.465 51.0391C175.152 50.8281 174.766 50.7227 174.305 50.7227C173.812 50.7227 173.41 50.8281 173.098 51.0391C172.785 51.2422 172.543 51.5234 172.371 51.8828C172.199 52.2344 172.078 52.6367 172.008 53.0898C171.945 53.5352 171.914 54.0039 171.914 54.4961V54.8359C171.914 55.3281 171.945 55.8008 172.008 56.2539C172.07 56.707 172.188 57.1094 172.359 57.4609C172.539 57.8125 172.785 58.0898 173.098 58.293C173.41 58.4961 173.816 58.5977 174.316 58.5977ZM188.449 57.4961C188.449 57.2539 188.379 57.0352 188.238 56.8398C188.098 56.6445 187.836 56.4648 187.453 56.3008C187.078 56.1289 186.535 55.9727 185.824 55.832C185.184 55.6914 184.586 55.5156 184.031 55.3047C183.484 55.0859 183.008 54.8242 182.602 54.5195C182.203 54.2148 181.891 53.8555 181.664 53.4414C181.438 53.0195 181.324 52.5391 181.324 52C181.324 51.4688 181.438 50.9688 181.664 50.5C181.898 50.0312 182.23 49.6172 182.66 49.2578C183.098 48.8906 183.629 48.6055 184.254 48.4023C184.887 48.1914 185.598 48.0859 186.387 48.0859C187.488 48.0859 188.434 48.2617 189.223 48.6133C190.02 48.9648 190.629 49.4492 191.051 50.0664C191.48 50.6758 191.695 51.3711 191.695 52.1523H188.32C188.32 51.8242 188.25 51.5312 188.109 51.2734C187.977 51.0078 187.766 50.8008 187.477 50.6523C187.195 50.4961 186.828 50.418 186.375 50.418C186 50.418 185.676 50.4844 185.402 50.6172C185.129 50.7422 184.918 50.9141 184.77 51.1328C184.629 51.3438 184.559 51.5781 184.559 51.8359C184.559 52.0312 184.598 52.207 184.676 52.3633C184.762 52.5117 184.898 52.6484 185.086 52.7734C185.273 52.8984 185.516 53.0156 185.812 53.125C186.117 53.2266 186.492 53.3203 186.938 53.4062C187.852 53.5938 188.668 53.8398 189.387 54.1445C190.105 54.4414 190.676 54.8477 191.098 55.3633C191.52 55.8711 191.73 56.5391 191.73 57.3672C191.73 57.9297 191.605 58.4453 191.355 58.9141C191.105 59.3828 190.746 59.793 190.277 60.1445C189.809 60.4883 189.246 60.7578 188.59 60.9531C187.941 61.1406 187.211 61.2344 186.398 61.2344C185.219 61.2344 184.219 61.0234 183.398 60.6016C182.586 60.1797 181.969 59.6445 181.547 58.9961C181.133 58.3398 180.926 57.668 180.926 56.9805H184.125C184.141 57.4414 184.258 57.8125 184.477 58.0938C184.703 58.375 184.988 58.5781 185.332 58.7031C185.684 58.8281 186.062 58.8906 186.469 58.8906C186.906 58.8906 187.27 58.832 187.559 58.7148C187.848 58.5898 188.066 58.4258 188.215 58.2227C188.371 58.0117 188.449 57.7695 188.449 57.4961ZM203.016 56.5352C203.016 56.2305 202.969 55.957 202.875 55.7148C202.789 55.4648 202.625 55.2383 202.383 55.0352C202.141 54.8242 201.801 54.6172 201.363 54.4141C200.926 54.2109 200.359 54 199.664 53.7812C198.891 53.5312 198.156 53.25 197.461 52.9375C196.773 52.625 196.164 52.2617 195.633 51.8477C195.109 51.4258 194.695 50.9375 194.391 50.3828C194.094 49.8281 193.945 49.1836 193.945 48.4492C193.945 47.7383 194.102 47.0938 194.414 46.5156C194.727 45.9297 195.164 45.4297 195.727 45.0156C196.289 44.5938 196.953 44.2695 197.719 44.043C198.492 43.8164 199.34 43.7031 200.262 43.7031C201.52 43.7031 202.617 43.9297 203.555 44.3828C204.492 44.8359 205.219 45.457 205.734 46.2461C206.258 47.0352 206.52 47.9375 206.52 48.9531H203.027C203.027 48.4531 202.922 48.0156 202.711 47.6406C202.508 47.2578 202.195 46.957 201.773 46.7383C201.359 46.5195 200.836 46.4102 200.203 46.4102C199.594 46.4102 199.086 46.5039 198.68 46.6914C198.273 46.8711 197.969 47.1172 197.766 47.4297C197.562 47.7344 197.461 48.0781 197.461 48.4609C197.461 48.75 197.531 49.0117 197.672 49.2461C197.82 49.4805 198.039 49.6992 198.328 49.9023C198.617 50.1055 198.973 50.2969 199.395 50.4766C199.816 50.6562 200.305 50.832 200.859 51.0039C201.789 51.2852 202.605 51.6016 203.309 51.9531C204.02 52.3047 204.613 52.6992 205.09 53.1367C205.566 53.5742 205.926 54.0703 206.168 54.625C206.41 55.1797 206.531 55.8086 206.531 56.5117C206.531 57.2539 206.387 57.918 206.098 58.5039C205.809 59.0898 205.391 59.5859 204.844 59.9922C204.297 60.3984 203.645 60.707 202.887 60.918C202.129 61.1289 201.281 61.2344 200.344 61.2344C199.5 61.2344 198.668 61.125 197.848 60.9062C197.027 60.6797 196.281 60.3398 195.609 59.8867C194.945 59.4336 194.414 58.8555 194.016 58.1523C193.617 57.4492 193.418 56.6172 193.418 55.6562H196.945C196.945 56.1875 197.027 56.6367 197.191 57.0039C197.355 57.3711 197.586 57.668 197.883 57.8945C198.188 58.1211 198.547 58.2852 198.961 58.3867C199.383 58.4883 199.844 58.5391 200.344 58.5391C200.953 58.5391 201.453 58.4531 201.844 58.2812C202.242 58.1094 202.535 57.8711 202.723 57.5664C202.918 57.2617 203.016 56.918 203.016 56.5352ZM214.922 48.3203V50.7109H207.539V48.3203H214.922ZM209.367 45.1914H212.742V57.1797C212.742 57.5469 212.789 57.8281 212.883 58.0234C212.984 58.2188 213.133 58.3555 213.328 58.4336C213.523 58.5039 213.77 58.5391 214.066 58.5391C214.277 58.5391 214.465 58.5312 214.629 58.5156C214.801 58.4922 214.945 58.4688 215.062 58.4453L215.074 60.9297C214.785 61.0234 214.473 61.0977 214.137 61.1523C213.801 61.207 213.43 61.2344 213.023 61.2344C212.281 61.2344 211.633 61.1133 211.078 60.8711C210.531 60.6211 210.109 60.2227 209.812 59.6758C209.516 59.1289 209.367 58.4102 209.367 57.5195V45.1914ZM224.344 57.9648V48.3203H227.719V61H224.543L224.344 57.9648ZM224.719 55.3633L225.715 55.3398C225.715 56.1836 225.617 56.9688 225.422 57.6953C225.227 58.4141 224.934 59.0391 224.543 59.5703C224.152 60.0938 223.66 60.5039 223.066 60.8008C222.473 61.0898 221.773 61.2344 220.969 61.2344C220.352 61.2344 219.781 61.1484 219.258 60.9766C218.742 60.7969 218.297 60.5195 217.922 60.1445C217.555 59.7617 217.266 59.2734 217.055 58.6797C216.852 58.0781 216.75 57.3555 216.75 56.5117V48.3203H220.125V56.5352C220.125 56.9102 220.168 57.2266 220.254 57.4844C220.348 57.7422 220.477 57.9531 220.641 58.1172C220.805 58.2812 220.996 58.3984 221.215 58.4688C221.441 58.5391 221.691 58.5742 221.965 58.5742C222.66 58.5742 223.207 58.4336 223.605 58.1523C224.012 57.8711 224.297 57.4883 224.461 57.0039C224.633 56.5117 224.719 55.9648 224.719 55.3633ZM237.785 58.2344V43H241.184V61H238.125L237.785 58.2344ZM229.77 54.8125V54.5664C229.77 53.5977 229.879 52.7188 230.098 51.9297C230.316 51.1328 230.637 50.4492 231.059 49.8789C231.48 49.3086 232 48.8672 232.617 48.5547C233.234 48.2422 233.938 48.0859 234.727 48.0859C235.469 48.0859 236.117 48.2422 236.672 48.5547C237.234 48.8672 237.711 49.3125 238.102 49.8906C238.5 50.4609 238.82 51.1367 239.062 51.918C239.305 52.6914 239.48 53.5391 239.59 54.4609V55C239.48 55.8828 239.305 56.7031 239.062 57.4609C238.82 58.2188 238.5 58.8828 238.102 59.4531C237.711 60.0156 237.234 60.4531 236.672 60.7656C236.109 61.0781 235.453 61.2344 234.703 61.2344C233.914 61.2344 233.211 61.0742 232.594 60.7539C231.984 60.4336 231.469 59.9844 231.047 59.4062C230.633 58.8281 230.316 58.1484 230.098 57.3672C229.879 56.5859 229.77 55.7344 229.77 54.8125ZM233.145 54.5664V54.8125C233.145 55.3359 233.184 55.8242 233.262 56.2773C233.348 56.7305 233.484 57.1328 233.672 57.4844C233.867 57.8281 234.117 58.0977 234.422 58.293C234.734 58.4805 235.113 58.5742 235.559 58.5742C236.137 58.5742 236.613 58.4453 236.988 58.1875C237.363 57.9219 237.648 57.5586 237.844 57.0977C238.047 56.6367 238.164 56.1055 238.195 55.5039V53.9688C238.172 53.4766 238.102 53.0352 237.984 52.6445C237.875 52.2461 237.711 51.9062 237.492 51.625C237.281 51.3438 237.016 51.125 236.695 50.9688C236.383 50.8125 236.012 50.7344 235.582 50.7344C235.145 50.7344 234.77 50.8359 234.457 51.0391C234.145 51.2344 233.891 51.5039 233.695 51.8477C233.508 52.1914 233.367 52.5977 233.273 53.0664C233.188 53.5273 233.145 54.0273 233.145 54.5664ZM247.383 48.3203V61H243.996V48.3203H247.383ZM243.785 45.0156C243.785 44.5234 243.957 44.1172 244.301 43.7969C244.645 43.4766 245.105 43.3164 245.684 43.3164C246.254 43.3164 246.711 43.4766 247.055 43.7969C247.406 44.1172 247.582 44.5234 247.582 45.0156C247.582 45.5078 247.406 45.9141 247.055 46.2344C246.711 46.5547 246.254 46.7148 245.684 46.7148C245.105 46.7148 244.645 46.5547 244.301 46.2344C243.957 45.9141 243.785 45.5078 243.785 45.0156ZM249.633 54.7891V54.543C249.633 53.6133 249.766 52.7578 250.031 51.9766C250.297 51.1875 250.684 50.5039 251.191 49.9258C251.699 49.3477 252.324 48.8984 253.066 48.5781C253.809 48.25 254.66 48.0859 255.621 48.0859C256.582 48.0859 257.438 48.25 258.188 48.5781C258.938 48.8984 259.566 49.3477 260.074 49.9258C260.59 50.5039 260.98 51.1875 261.246 51.9766C261.512 52.7578 261.645 53.6133 261.645 54.543V54.7891C261.645 55.7109 261.512 56.5664 261.246 57.3555C260.98 58.1367 260.59 58.8203 260.074 59.4062C259.566 59.9844 258.941 60.4336 258.199 60.7539C257.457 61.0742 256.605 61.2344 255.645 61.2344C254.684 61.2344 253.828 61.0742 253.078 60.7539C252.336 60.4336 251.707 59.9844 251.191 59.4062C250.684 58.8203 250.297 58.1367 250.031 57.3555C249.766 56.5664 249.633 55.7109 249.633 54.7891ZM253.008 54.543V54.7891C253.008 55.3203 253.055 55.8164 253.148 56.2773C253.242 56.7383 253.391 57.1445 253.594 57.4961C253.805 57.8398 254.078 58.1094 254.414 58.3047C254.75 58.5 255.16 58.5977 255.645 58.5977C256.113 58.5977 256.516 58.5 256.852 58.3047C257.188 58.1094 257.457 57.8398 257.66 57.4961C257.863 57.1445 258.012 56.7383 258.105 56.2773C258.207 55.8164 258.258 55.3203 258.258 54.7891V54.543C258.258 54.0273 258.207 53.543 258.105 53.0898C258.012 52.6289 257.859 52.2227 257.648 51.8711C257.445 51.5117 257.176 51.2305 256.84 51.0273C256.504 50.8242 256.098 50.7227 255.621 50.7227C255.145 50.7227 254.738 50.8242 254.402 51.0273C254.074 51.2305 253.805 51.5117 253.594 51.8711C253.391 52.2227 253.242 52.6289 253.148 53.0898C253.055 53.543 253.008 54.0273 253.008 54.543Z" fill="#888888"/>
<path d="M110.062 92.0469L101.742 119H92.9062L105.445 84.875H111.047L110.062 92.0469ZM116.953 119L108.609 92.0469L107.531 84.875H113.203L125.812 119H116.953ZM116.625 106.273V112.625H99.1172V106.273H116.625ZM135.258 115.906L142.055 84.875H146.109L148.312 87.5234L141.07 119H136.594L135.258 115.906ZM133.453 84.875L139.195 116.141L137.719 119H132.539L125.297 84.875H133.453ZM152.039 115.977L157.734 84.875H165.867L158.625 119H153.469L152.039 115.977ZM149.039 84.875L156 116.094L154.594 119H150.117L142.711 87.4766L145.008 84.875H149.039ZM186.68 109.93C186.68 109.398 186.602 108.922 186.445 108.5C186.289 108.062 186 107.656 185.578 107.281C185.156 106.906 184.547 106.531 183.75 106.156C182.969 105.766 181.938 105.359 180.656 104.938C179.156 104.438 177.711 103.875 176.32 103.25C174.93 102.609 173.688 101.867 172.594 101.023C171.5 100.164 170.633 99.1641 169.992 98.0234C169.352 96.8672 169.031 95.5234 169.031 93.9922C169.031 92.5234 169.359 91.2031 170.016 90.0312C170.672 88.8438 171.586 87.8359 172.758 87.0078C173.945 86.1641 175.336 85.5234 176.93 85.0859C178.523 84.6328 180.266 84.4062 182.156 84.4062C184.656 84.4062 186.859 84.8438 188.766 85.7188C190.688 86.5781 192.188 87.8047 193.266 89.3984C194.359 90.9766 194.906 92.8438 194.906 95H186.727C186.727 94.1406 186.547 93.3828 186.188 92.7266C185.844 92.0703 185.32 91.5547 184.617 91.1797C183.914 90.8047 183.031 90.6172 181.969 90.6172C180.938 90.6172 180.07 90.7734 179.367 91.0859C178.664 91.3984 178.133 91.8203 177.773 92.3516C177.414 92.8672 177.234 93.4375 177.234 94.0625C177.234 94.5781 177.375 95.0469 177.656 95.4688C177.953 95.875 178.367 96.2578 178.898 96.6172C179.445 96.9766 180.102 97.3203 180.867 97.6484C181.648 97.9766 182.523 98.2969 183.492 98.6094C185.305 99.1875 186.914 99.8359 188.32 100.555C189.742 101.258 190.938 102.062 191.906 102.969C192.891 103.859 193.633 104.875 194.133 106.016C194.648 107.156 194.906 108.445 194.906 109.883C194.906 111.414 194.609 112.773 194.016 113.961C193.422 115.148 192.57 116.156 191.461 116.984C190.352 117.797 189.023 118.414 187.477 118.836C185.93 119.258 184.203 119.469 182.297 119.469C180.547 119.469 178.82 119.25 177.117 118.812C175.43 118.359 173.898 117.672 172.523 116.75C171.148 115.812 170.047 114.617 169.219 113.164C168.406 111.695 168 109.953 168 107.938H176.25C176.25 108.938 176.383 109.781 176.648 110.469C176.914 111.156 177.305 111.711 177.82 112.133C178.336 112.539 178.969 112.836 179.719 113.023C180.469 113.195 181.328 113.281 182.297 113.281C183.344 113.281 184.188 113.133 184.828 112.836C185.469 112.523 185.938 112.117 186.234 111.617C186.531 111.102 186.68 110.539 186.68 109.93ZM222.188 119H214.617L214.664 112.672H222.188C223.75 112.672 225.07 112.297 226.148 111.547C227.242 110.797 228.07 109.68 228.633 108.195C229.211 106.695 229.5 104.852 229.5 102.664V101.188C229.5 99.5469 229.336 98.1094 229.008 96.875C228.695 95.625 228.227 94.5859 227.602 93.7578C226.977 92.9141 226.195 92.2812 225.258 91.8594C224.336 91.4375 223.273 91.2266 222.07 91.2266H214.477V84.875H222.07C224.383 84.875 226.5 85.2734 228.422 86.0703C230.359 86.8516 232.031 87.9766 233.438 89.4453C234.859 90.8984 235.953 92.625 236.719 94.625C237.5 96.6094 237.891 98.8125 237.891 101.234V102.664C237.891 105.07 237.5 107.273 236.719 109.273C235.953 111.273 234.867 113 233.461 114.453C232.055 115.906 230.391 117.031 228.469 117.828C226.562 118.609 224.469 119 222.188 119ZM219.328 84.875V119H211.102V84.875H219.328ZM254.086 119.469C252.023 119.469 250.18 119.148 248.555 118.508C246.93 117.852 245.555 116.953 244.43 115.812C243.32 114.672 242.469 113.359 241.875 111.875C241.297 110.391 241.008 108.82 241.008 107.164V106.273C241.008 104.414 241.266 102.695 241.781 101.117C242.297 99.5234 243.062 98.1328 244.078 96.9453C245.094 95.7578 246.367 94.8359 247.898 94.1797C249.43 93.5078 251.211 93.1719 253.242 93.1719C255.039 93.1719 256.648 93.4609 258.07 94.0391C259.492 94.6172 260.695 95.4453 261.68 96.5234C262.68 97.6016 263.438 98.9062 263.953 100.438C264.484 101.969 264.75 103.688 264.75 105.594V108.805H244.031V103.859H257.039V103.25C257.055 102.406 256.906 101.688 256.594 101.094C256.297 100.5 255.859 100.047 255.281 99.7344C254.703 99.4219 254 99.2656 253.172 99.2656C252.312 99.2656 251.602 99.4531 251.039 99.8281C250.492 100.203 250.062 100.719 249.75 101.375C249.453 102.016 249.242 102.758 249.117 103.602C248.992 104.445 248.93 105.336 248.93 106.273V107.164C248.93 108.102 249.055 108.953 249.305 109.719C249.57 110.484 249.945 111.141 250.43 111.688C250.93 112.219 251.523 112.633 252.211 112.93C252.914 113.227 253.711 113.375 254.602 113.375C255.68 113.375 256.742 113.172 257.789 112.766C258.836 112.359 259.734 111.688 260.484 110.75L264.07 115.016C263.555 115.75 262.82 116.461 261.867 117.148C260.93 117.836 259.805 118.398 258.492 118.836C257.18 119.258 255.711 119.469 254.086 119.469ZM275.93 98.5156V128.75H268.031V93.6406H275.391L275.93 98.5156ZM291.492 106.016V106.508C291.492 108.352 291.281 110.062 290.859 111.641C290.438 113.219 289.812 114.594 288.984 115.766C288.156 116.938 287.125 117.852 285.891 118.508C284.672 119.148 283.258 119.469 281.648 119.469C280.133 119.469 278.828 119.133 277.734 118.461C276.641 117.789 275.727 116.859 274.992 115.672C274.258 114.484 273.664 113.125 273.211 111.594C272.758 110.062 272.398 108.445 272.133 106.742V106.109C272.398 104.281 272.758 102.586 273.211 101.023C273.664 99.4453 274.258 98.0703 274.992 96.8984C275.727 95.7266 276.633 94.8125 277.711 94.1562C278.805 93.5 280.109 93.1719 281.625 93.1719C283.234 93.1719 284.648 93.4766 285.867 94.0859C287.102 94.6953 288.133 95.5703 288.961 96.7109C289.805 97.8359 290.438 99.1875 290.859 100.766C291.281 102.344 291.492 104.094 291.492 106.016ZM283.594 106.508V106.016C283.594 105.031 283.523 104.133 283.383 103.32C283.242 102.492 283.016 101.773 282.703 101.164C282.406 100.555 282.008 100.086 281.508 99.7578C281.008 99.4297 280.391 99.2656 279.656 99.2656C278.812 99.2656 278.102 99.3984 277.523 99.6641C276.961 99.9141 276.508 100.305 276.164 100.836C275.836 101.352 275.602 102 275.461 102.781C275.336 103.547 275.281 104.445 275.297 105.477V107.398C275.266 108.586 275.383 109.633 275.648 110.539C275.914 111.43 276.375 112.125 277.031 112.625C277.688 113.125 278.578 113.375 279.703 113.375C280.453 113.375 281.078 113.203 281.578 112.859C282.078 112.5 282.477 112.008 282.773 111.383C283.07 110.742 283.281 110.008 283.406 109.18C283.531 108.352 283.594 107.461 283.594 106.508ZM303.352 83V119H295.43V83H303.352ZM307.242 106.578V106.086C307.242 104.227 307.508 102.516 308.039 100.953C308.57 99.375 309.352 98.0078 310.383 96.8516C311.414 95.6953 312.688 94.7969 314.203 94.1562C315.719 93.5 317.469 93.1719 319.453 93.1719C321.453 93.1719 323.211 93.5 324.727 94.1562C326.258 94.7969 327.539 95.6953 328.57 96.8516C329.602 98.0078 330.383 99.375 330.914 100.953C331.445 102.516 331.711 104.227 331.711 106.086V106.578C331.711 108.422 331.445 110.133 330.914 111.711C330.383 113.273 329.602 114.641 328.57 115.812C327.539 116.969 326.266 117.867 324.75 118.508C323.234 119.148 321.484 119.469 319.5 119.469C317.516 119.469 315.758 119.148 314.227 118.508C312.695 117.867 311.414 116.969 310.383 115.812C309.352 114.641 308.57 113.273 308.039 111.711C307.508 110.133 307.242 108.422 307.242 106.578ZM315.141 106.086V106.578C315.141 107.531 315.211 108.422 315.352 109.25C315.492 110.078 315.727 110.805 316.055 111.43C316.383 112.039 316.828 112.516 317.391 112.859C317.953 113.203 318.656 113.375 319.5 113.375C320.328 113.375 321.016 113.203 321.562 112.859C322.125 112.516 322.57 112.039 322.898 111.43C323.227 110.805 323.461 110.078 323.602 109.25C323.742 108.422 323.812 107.531 323.812 106.578V106.086C323.812 105.164 323.742 104.297 323.602 103.484C323.461 102.656 323.227 101.93 322.898 101.305C322.57 100.664 322.125 100.164 321.562 99.8047C321 99.4453 320.297 99.2656 319.453 99.2656C318.625 99.2656 317.93 99.4453 317.367 99.8047C316.82 100.164 316.383 100.664 316.055 101.305C315.727 101.93 315.492 102.656 315.352 103.484C315.211 104.297 315.141 105.164 315.141 106.086ZM342.633 116.023L349.195 93.6406H357.68L347.484 122.773C347.266 123.414 346.977 124.102 346.617 124.836C346.258 125.586 345.766 126.297 345.141 126.969C344.516 127.641 343.711 128.188 342.727 128.609C341.758 129.031 340.555 129.242 339.117 129.242C338.352 129.242 337.789 129.203 337.43 129.125C337.086 129.062 336.555 128.945 335.836 128.773V123.125C336.039 123.125 336.211 123.125 336.352 123.125C336.508 123.125 336.68 123.125 336.867 123.125C337.711 123.125 338.383 123.039 338.883 122.867C339.398 122.695 339.789 122.445 340.055 122.117C340.336 121.789 340.555 121.391 340.711 120.922L342.633 116.023ZM340.969 93.6406L345.961 111.383L346.828 119.75H341.531L332.508 93.6406H340.969ZM367.711 99.0078V119H359.812V93.6406H367.219L367.711 99.0078ZM366.75 105.453L364.945 105.5C364.945 103.719 365.156 102.078 365.578 100.578C366 99.0781 366.625 97.7734 367.453 96.6641C368.281 95.5547 369.297 94.6953 370.5 94.0859C371.719 93.4766 373.125 93.1719 374.719 93.1719C375.828 93.1719 376.836 93.3438 377.742 93.6875C378.648 94.0156 379.43 94.5391 380.086 95.2578C380.742 95.9609 381.242 96.8828 381.586 98.0234C381.945 99.1484 382.125 100.5 382.125 102.078V119H374.227V103.086C374.227 102.008 374.102 101.195 373.852 100.648C373.617 100.102 373.273 99.7344 372.82 99.5469C372.367 99.3594 371.812 99.2656 371.156 99.2656C370.469 99.2656 369.852 99.4219 369.305 99.7344C368.758 100.047 368.289 100.484 367.898 101.047C367.523 101.594 367.234 102.242 367.031 102.992C366.844 103.742 366.75 104.562 366.75 105.453ZM381.234 105.453L379.031 105.5C379.031 103.719 379.227 102.078 379.617 100.578C380.023 99.0781 380.625 97.7734 381.422 96.6641C382.234 95.5547 383.242 94.6953 384.445 94.0859C385.648 93.4766 387.047 93.1719 388.641 93.1719C389.797 93.1719 390.859 93.3438 391.828 93.6875C392.797 94.0312 393.633 94.5859 394.336 95.3516C395.039 96.1172 395.586 97.1328 395.977 98.3984C396.367 99.6484 396.562 101.195 396.562 103.039V119H388.641V103.039C388.641 101.992 388.516 101.203 388.266 100.672C388.031 100.125 387.688 99.7578 387.234 99.5703C386.781 99.3672 386.242 99.2656 385.617 99.2656C384.867 99.2656 384.219 99.4219 383.672 99.7344C383.125 100.047 382.664 100.484 382.289 101.047C381.93 101.594 381.664 102.242 381.492 102.992C381.32 103.742 381.234 104.562 381.234 105.453ZM413.367 119.469C411.305 119.469 409.461 119.148 407.836 118.508C406.211 117.852 404.836 116.953 403.711 115.812C402.602 114.672 401.75 113.359 401.156 111.875C400.578 110.391 400.289 108.82 400.289 107.164V106.273C400.289 104.414 400.547 102.695 401.062 101.117C401.578 99.5234 402.344 98.1328 403.359 96.9453C404.375 95.7578 405.648 94.8359 407.18 94.1797C408.711 93.5078 410.492 93.1719 412.523 93.1719C414.32 93.1719 415.93 93.4609 417.352 94.0391C418.773 94.6172 419.977 95.4453 420.961 96.5234C421.961 97.6016 422.719 98.9062 423.234 100.438C423.766 101.969 424.031 103.688 424.031 105.594V108.805H403.312V103.859H416.32V103.25C416.336 102.406 416.188 101.688 415.875 101.094C415.578 100.5 415.141 100.047 414.562 99.7344C413.984 99.4219 413.281 99.2656 412.453 99.2656C411.594 99.2656 410.883 99.4531 410.32 99.8281C409.773 100.203 409.344 100.719 409.031 101.375C408.734 102.016 408.523 102.758 408.398 103.602C408.273 104.445 408.211 105.336 408.211 106.273V107.164C408.211 108.102 408.336 108.953 408.586 109.719C408.852 110.484 409.227 111.141 409.711 111.688C410.211 112.219 410.805 112.633 411.492 112.93C412.195 113.227 412.992 113.375 413.883 113.375C414.961 113.375 416.023 113.172 417.07 112.766C418.117 112.359 419.016 111.688 419.766 110.75L423.352 115.016C422.836 115.75 422.102 116.461 421.148 117.148C420.211 117.836 419.086 118.398 417.773 118.836C416.461 119.258 414.992 119.469 413.367 119.469ZM435 99.0547V119H427.102V93.6406H434.508L435 99.0547ZM434.062 105.453L432.211 105.5C432.211 103.562 432.445 101.836 432.914 100.32C433.383 98.7891 434.047 97.4922 434.906 96.4297C435.766 95.3672 436.789 94.5625 437.977 94.0156C439.18 93.4531 440.516 93.1719 441.984 93.1719C443.156 93.1719 444.227 93.3438 445.195 93.6875C446.18 94.0312 447.023 94.5859 447.727 95.3516C448.445 96.1172 448.992 97.1328 449.367 98.3984C449.758 99.6484 449.953 101.195 449.953 103.039V119H442.008V103.016C442.008 102 441.867 101.227 441.586 100.695C441.305 100.148 440.898 99.7734 440.367 99.5703C439.836 99.3672 439.188 99.2656 438.422 99.2656C437.609 99.2656 436.922 99.4219 436.359 99.7344C435.797 100.047 435.344 100.484 435 101.047C434.672 101.594 434.43 102.242 434.273 102.992C434.133 103.742 434.062 104.562 434.062 105.453ZM467.695 93.6406V99.125H452.414V93.6406H467.695ZM455.625 87.3359H463.523V110.727C463.523 111.398 463.602 111.922 463.758 112.297C463.914 112.656 464.18 112.914 464.555 113.07C464.945 113.211 465.461 113.281 466.102 113.281C466.555 113.281 466.93 113.273 467.227 113.258C467.523 113.227 467.805 113.188 468.07 113.141V118.789C467.398 119.008 466.695 119.172 465.961 119.281C465.227 119.406 464.445 119.469 463.617 119.469C461.93 119.469 460.484 119.203 459.281 118.672C458.094 118.141 457.188 117.305 456.562 116.164C455.938 115.023 455.625 113.539 455.625 111.711V87.3359Z" fill="black"/>
<path d="M1134 0H1348C1356.28 0 1363 6.71573 1363 15V148C1363 156.284 1356.28 163 1348 163H1134V0Z" fill="#FF6F61"/>
<path d="M1212.5 117.5L1212.5 45.5L1284.5 45.5L1284.5 117.5L1212.5 117.5Z" fill="white" fill-opacity="0.01"/>
<path d="M1221.5 81.5125L1221.5 108.5L1275.5 108.5L1275.5 81.5" stroke="white" stroke-width="7.24" stroke-linecap="round" stroke-linejoin="round"/>
<path d="M1262 68L1248.5 54.5L1235 68" stroke="white" stroke-width="7.24" stroke-linecap="round" stroke-linejoin="round"/>
<path d="M1248.49 93.5L1248.49 54.5" stroke="white" stroke-width="7.24" stroke-linecap="round" stroke-linejoin="round"/>
</svg>
