<svg width="1363" height="163" viewBox="0 0 1363 163" fill="none" xmlns="http://www.w3.org/2000/svg">
<path d="M0 15C0 6.71573 6.71573 0 15 0H37V163H15C6.71573 163 0 156.284 0 148V15Z" fill="#424242"/>
<rect width="1097" height="163" transform="translate(37)" fill="#F0F0F0"/>
<path d="M101.906 53.9219L94.3945 51.2383V48.0859L104.602 52.375V54.6367L101.906 53.9219ZM94.3945 56.1719L101.918 53.4297L104.602 52.7852V55.0352L94.3945 59.3242V56.1719ZM122.789 55.3398H126.293C126.223 56.4883 125.906 57.5078 125.344 58.3984C124.789 59.2891 124.012 59.9844 123.012 60.4844C122.02 60.9844 120.824 61.2344 119.426 61.2344C118.332 61.2344 117.352 61.0469 116.484 60.6719C115.617 60.2891 114.875 59.7422 114.258 59.0312C113.648 58.3203 113.184 57.4609 112.863 56.4531C112.543 55.4453 112.383 54.3164 112.383 53.0664V51.8828C112.383 50.6328 112.547 49.5039 112.875 48.4961C113.211 47.4805 113.688 46.6172 114.305 45.9062C114.93 45.1953 115.676 44.6484 116.543 44.2656C117.41 43.8828 118.379 43.6914 119.449 43.6914C120.871 43.6914 122.07 43.9492 123.047 44.4648C124.031 44.9805 124.793 45.6914 125.332 46.5977C125.879 47.5039 126.207 48.5352 126.316 49.6914H122.801C122.762 49.0039 122.625 48.4219 122.391 47.9453C122.156 47.4609 121.801 47.0977 121.324 46.8555C120.855 46.6055 120.23 46.4805 119.449 46.4805C118.863 46.4805 118.352 46.5898 117.914 46.8086C117.477 47.0273 117.109 47.3594 116.812 47.8047C116.516 48.25 116.293 48.8125 116.145 49.4922C116.004 50.1641 115.934 50.9531 115.934 51.8594V53.0664C115.934 53.9492 116 54.7266 116.133 55.3984C116.266 56.0625 116.469 56.625 116.742 57.0859C117.023 57.5391 117.383 57.8828 117.82 58.1172C118.266 58.3438 118.801 58.457 119.426 58.457C120.16 58.457 120.766 58.3398 121.242 58.1055C121.719 57.8711 122.082 57.5234 122.332 57.0625C122.59 56.6016 122.742 56.0273 122.789 55.3398ZM127.852 54.7891V54.543C127.852 53.6133 127.984 52.7578 128.25 51.9766C128.516 51.1875 128.902 50.5039 129.41 49.9258C129.918 49.3477 130.543 48.8984 131.285 48.5781C132.027 48.25 132.879 48.0859 133.84 48.0859C134.801 48.0859 135.656 48.25 136.406 48.5781C137.156 48.8984 137.785 49.3477 138.293 49.9258C138.809 50.5039 139.199 51.1875 139.465 51.9766C139.73 52.7578 139.863 53.6133 139.863 54.543V54.7891C139.863 55.7109 139.73 56.5664 139.465 57.3555C139.199 58.1367 138.809 58.8203 138.293 59.4062C137.785 59.9844 137.16 60.4336 136.418 60.7539C135.676 61.0742 134.824 61.2344 133.863 61.2344C132.902 61.2344 132.047 61.0742 131.297 60.7539C130.555 60.4336 129.926 59.9844 129.41 59.4062C128.902 58.8203 128.516 58.1367 128.25 57.3555C127.984 56.5664 127.852 55.7109 127.852 54.7891ZM131.227 54.543V54.7891C131.227 55.3203 131.273 55.8164 131.367 56.2773C131.461 56.7383 131.609 57.1445 131.812 57.4961C132.023 57.8398 132.297 58.1094 132.633 58.3047C132.969 58.5 133.379 58.5977 133.863 58.5977C134.332 58.5977 134.734 58.5 135.07 58.3047C135.406 58.1094 135.676 57.8398 135.879 57.4961C136.082 57.1445 136.23 56.7383 136.324 56.2773C136.426 55.8164 136.477 55.3203 136.477 54.7891V54.543C136.477 54.0273 136.426 53.543 136.324 53.0898C136.23 52.6289 136.078 52.2227 135.867 51.8711C135.664 51.5117 135.395 51.2305 135.059 51.0273C134.723 50.8242 134.316 50.7227 133.84 50.7227C133.363 50.7227 132.957 50.8242 132.621 51.0273C132.293 51.2305 132.023 51.5117 131.812 51.8711C131.609 52.2227 131.461 52.6289 131.367 53.0898C131.273 53.543 131.227 54.0273 131.227 54.543ZM145.312 50.9453V61H141.926V48.3203H145.102L145.312 50.9453ZM144.844 54.2148H143.906C143.906 53.332 144.012 52.5195 144.223 51.7773C144.441 51.0273 144.758 50.3789 145.172 49.832C145.594 49.2773 146.113 48.8477 146.73 48.543C147.348 48.2383 148.062 48.0859 148.875 48.0859C149.438 48.0859 149.953 48.1719 150.422 48.3438C150.891 48.5078 151.293 48.7695 151.629 49.1289C151.973 49.4805 152.238 49.9414 152.426 50.5117C152.613 51.0742 152.707 51.75 152.707 52.5391V61H149.332V52.9141C149.332 52.3359 149.254 51.8906 149.098 51.5781C148.941 51.2656 148.719 51.0469 148.43 50.9219C148.148 50.7969 147.809 50.7344 147.41 50.7344C146.973 50.7344 146.59 50.8242 146.262 51.0039C145.941 51.1836 145.676 51.4336 145.465 51.7539C145.254 52.0664 145.098 52.4336 144.996 52.8555C144.895 53.2773 144.844 53.7305 144.844 54.2148ZM152.391 53.8281L151.184 53.9805C151.184 53.1523 151.285 52.3828 151.488 51.6719C151.699 50.9609 152.008 50.3359 152.414 49.7969C152.828 49.2578 153.34 48.8398 153.949 48.543C154.559 48.2383 155.262 48.0859 156.059 48.0859C156.668 48.0859 157.223 48.1758 157.723 48.3555C158.223 48.5273 158.648 48.8047 159 49.1875C159.359 49.5625 159.633 50.0547 159.82 50.6641C160.016 51.2734 160.113 52.0195 160.113 52.9023V61H156.727V52.9023C156.727 52.3164 156.648 51.8711 156.492 51.5664C156.344 51.2539 156.125 51.0391 155.836 50.9219C155.555 50.7969 155.219 50.7344 154.828 50.7344C154.422 50.7344 154.066 50.8164 153.762 50.9805C153.457 51.1367 153.203 51.3555 153 51.6367C152.797 51.918 152.645 52.2461 152.543 52.6211C152.441 52.9883 152.391 53.3906 152.391 53.8281ZM166.289 48.3203V61H162.902V48.3203H166.289ZM162.691 45.0156C162.691 44.5234 162.863 44.1172 163.207 43.7969C163.551 43.4766 164.012 43.3164 164.59 43.3164C165.16 43.3164 165.617 43.4766 165.961 43.7969C166.312 44.1172 166.488 44.5234 166.488 45.0156C166.488 45.5078 166.312 45.9141 165.961 46.2344C165.617 46.5547 165.16 46.7148 164.59 46.7148C164.012 46.7148 163.551 46.5547 163.207 46.2344C162.863 45.9141 162.691 45.5078 162.691 45.0156ZM174.316 58.5977C174.73 58.5977 175.098 58.5195 175.418 58.3633C175.738 58.1992 175.988 57.9727 176.168 57.6836C176.355 57.3867 176.453 57.0391 176.461 56.6406H179.637C179.629 57.5312 179.391 58.3242 178.922 59.0195C178.453 59.707 177.824 60.25 177.035 60.6484C176.246 61.0391 175.363 61.2344 174.387 61.2344C173.402 61.2344 172.543 61.0703 171.809 60.7422C171.082 60.4141 170.477 59.9609 169.992 59.3828C169.508 58.7969 169.145 58.1172 168.902 57.3438C168.66 56.5625 168.539 55.7266 168.539 54.8359V54.4961C168.539 53.5977 168.66 52.7617 168.902 51.9883C169.145 51.207 169.508 50.5273 169.992 49.9492C170.477 49.3633 171.082 48.9062 171.809 48.5781C172.535 48.25 173.387 48.0859 174.363 48.0859C175.402 48.0859 176.312 48.2852 177.094 48.6836C177.883 49.082 178.5 49.6523 178.945 50.3945C179.398 51.1289 179.629 52 179.637 53.0078H176.461C176.453 52.5859 176.363 52.2031 176.191 51.8594C176.027 51.5156 175.785 51.2422 175.465 51.0391C175.152 50.8281 174.766 50.7227 174.305 50.7227C173.812 50.7227 173.41 50.8281 173.098 51.0391C172.785 51.2422 172.543 51.5234 172.371 51.8828C172.199 52.2344 172.078 52.6367 172.008 53.0898C171.945 53.5352 171.914 54.0039 171.914 54.4961V54.8359C171.914 55.3281 171.945 55.8008 172.008 56.2539C172.07 56.707 172.188 57.1094 172.359 57.4609C172.539 57.8125 172.785 58.0898 173.098 58.293C173.41 58.4961 173.816 58.5977 174.316 58.5977ZM188.449 57.4961C188.449 57.2539 188.379 57.0352 188.238 56.8398C188.098 56.6445 187.836 56.4648 187.453 56.3008C187.078 56.1289 186.535 55.9727 185.824 55.832C185.184 55.6914 184.586 55.5156 184.031 55.3047C183.484 55.0859 183.008 54.8242 182.602 54.5195C182.203 54.2148 181.891 53.8555 181.664 53.4414C181.438 53.0195 181.324 52.5391 181.324 52C181.324 51.4688 181.438 50.9688 181.664 50.5C181.898 50.0312 182.23 49.6172 182.66 49.2578C183.098 48.8906 183.629 48.6055 184.254 48.4023C184.887 48.1914 185.598 48.0859 186.387 48.0859C187.488 48.0859 188.434 48.2617 189.223 48.6133C190.02 48.9648 190.629 49.4492 191.051 50.0664C191.48 50.6758 191.695 51.3711 191.695 52.1523H188.32C188.32 51.8242 188.25 51.5312 188.109 51.2734C187.977 51.0078 187.766 50.8008 187.477 50.6523C187.195 50.4961 186.828 50.418 186.375 50.418C186 50.418 185.676 50.4844 185.402 50.6172C185.129 50.7422 184.918 50.9141 184.77 51.1328C184.629 51.3438 184.559 51.5781 184.559 51.8359C184.559 52.0312 184.598 52.207 184.676 52.3633C184.762 52.5117 184.898 52.6484 185.086 52.7734C185.273 52.8984 185.516 53.0156 185.812 53.125C186.117 53.2266 186.492 53.3203 186.938 53.4062C187.852 53.5938 188.668 53.8398 189.387 54.1445C190.105 54.4414 190.676 54.8477 191.098 55.3633C191.52 55.8711 191.73 56.5391 191.73 57.3672C191.73 57.9297 191.605 58.4453 191.355 58.9141C191.105 59.3828 190.746 59.793 190.277 60.1445C189.809 60.4883 189.246 60.7578 188.59 60.9531C187.941 61.1406 187.211 61.2344 186.398 61.2344C185.219 61.2344 184.219 61.0234 183.398 60.6016C182.586 60.1797 181.969 59.6445 181.547 58.9961C181.133 58.3398 180.926 57.668 180.926 56.9805H184.125C184.141 57.4414 184.258 57.8125 184.477 58.0938C184.703 58.375 184.988 58.5781 185.332 58.7031C185.684 58.8281 186.062 58.8906 186.469 58.8906C186.906 58.8906 187.27 58.832 187.559 58.7148C187.848 58.5898 188.066 58.4258 188.215 58.2227C188.371 58.0117 188.449 57.7695 188.449 57.4961ZM203.016 56.5352C203.016 56.2305 202.969 55.957 202.875 55.7148C202.789 55.4648 202.625 55.2383 202.383 55.0352C202.141 54.8242 201.801 54.6172 201.363 54.4141C200.926 54.2109 200.359 54 199.664 53.7812C198.891 53.5312 198.156 53.25 197.461 52.9375C196.773 52.625 196.164 52.2617 195.633 51.8477C195.109 51.4258 194.695 50.9375 194.391 50.3828C194.094 49.8281 193.945 49.1836 193.945 48.4492C193.945 47.7383 194.102 47.0938 194.414 46.5156C194.727 45.9297 195.164 45.4297 195.727 45.0156C196.289 44.5938 196.953 44.2695 197.719 44.043C198.492 43.8164 199.34 43.7031 200.262 43.7031C201.52 43.7031 202.617 43.9297 203.555 44.3828C204.492 44.8359 205.219 45.457 205.734 46.2461C206.258 47.0352 206.52 47.9375 206.52 48.9531H203.027C203.027 48.4531 202.922 48.0156 202.711 47.6406C202.508 47.2578 202.195 46.957 201.773 46.7383C201.359 46.5195 200.836 46.4102 200.203 46.4102C199.594 46.4102 199.086 46.5039 198.68 46.6914C198.273 46.8711 197.969 47.1172 197.766 47.4297C197.562 47.7344 197.461 48.0781 197.461 48.4609C197.461 48.75 197.531 49.0117 197.672 49.2461C197.82 49.4805 198.039 49.6992 198.328 49.9023C198.617 50.1055 198.973 50.2969 199.395 50.4766C199.816 50.6562 200.305 50.832 200.859 51.0039C201.789 51.2852 202.605 51.6016 203.309 51.9531C204.02 52.3047 204.613 52.6992 205.09 53.1367C205.566 53.5742 205.926 54.0703 206.168 54.625C206.41 55.1797 206.531 55.8086 206.531 56.5117C206.531 57.2539 206.387 57.918 206.098 58.5039C205.809 59.0898 205.391 59.5859 204.844 59.9922C204.297 60.3984 203.645 60.707 202.887 60.918C202.129 61.1289 201.281 61.2344 200.344 61.2344C199.5 61.2344 198.668 61.125 197.848 60.9062C197.027 60.6797 196.281 60.3398 195.609 59.8867C194.945 59.4336 194.414 58.8555 194.016 58.1523C193.617 57.4492 193.418 56.6172 193.418 55.6562H196.945C196.945 56.1875 197.027 56.6367 197.191 57.0039C197.355 57.3711 197.586 57.668 197.883 57.8945C198.188 58.1211 198.547 58.2852 198.961 58.3867C199.383 58.4883 199.844 58.5391 200.344 58.5391C200.953 58.5391 201.453 58.4531 201.844 58.2812C202.242 58.1094 202.535 57.8711 202.723 57.5664C202.918 57.2617 203.016 56.918 203.016 56.5352ZM214.922 48.3203V50.7109H207.539V48.3203H214.922ZM209.367 45.1914H212.742V57.1797C212.742 57.5469 212.789 57.8281 212.883 58.0234C212.984 58.2188 213.133 58.3555 213.328 58.4336C213.523 58.5039 213.77 58.5391 214.066 58.5391C214.277 58.5391 214.465 58.5312 214.629 58.5156C214.801 58.4922 214.945 58.4688 215.062 58.4453L215.074 60.9297C214.785 61.0234 214.473 61.0977 214.137 61.1523C213.801 61.207 213.43 61.2344 213.023 61.2344C212.281 61.2344 211.633 61.1133 211.078 60.8711C210.531 60.6211 210.109 60.2227 209.812 59.6758C209.516 59.1289 209.367 58.4102 209.367 57.5195V45.1914ZM224.344 57.9648V48.3203H227.719V61H224.543L224.344 57.9648ZM224.719 55.3633L225.715 55.3398C225.715 56.1836 225.617 56.9688 225.422 57.6953C225.227 58.4141 224.934 59.0391 224.543 59.5703C224.152 60.0938 223.66 60.5039 223.066 60.8008C222.473 61.0898 221.773 61.2344 220.969 61.2344C220.352 61.2344 219.781 61.1484 219.258 60.9766C218.742 60.7969 218.297 60.5195 217.922 60.1445C217.555 59.7617 217.266 59.2734 217.055 58.6797C216.852 58.0781 216.75 57.3555 216.75 56.5117V48.3203H220.125V56.5352C220.125 56.9102 220.168 57.2266 220.254 57.4844C220.348 57.7422 220.477 57.9531 220.641 58.1172C220.805 58.2812 220.996 58.3984 221.215 58.4688C221.441 58.5391 221.691 58.5742 221.965 58.5742C222.66 58.5742 223.207 58.4336 223.605 58.1523C224.012 57.8711 224.297 57.4883 224.461 57.0039C224.633 56.5117 224.719 55.9648 224.719 55.3633ZM237.785 58.2344V43H241.184V61H238.125L237.785 58.2344ZM229.77 54.8125V54.5664C229.77 53.5977 229.879 52.7188 230.098 51.9297C230.316 51.1328 230.637 50.4492 231.059 49.8789C231.48 49.3086 232 48.8672 232.617 48.5547C233.234 48.2422 233.938 48.0859 234.727 48.0859C235.469 48.0859 236.117 48.2422 236.672 48.5547C237.234 48.8672 237.711 49.3125 238.102 49.8906C238.5 50.4609 238.82 51.1367 239.062 51.918C239.305 52.6914 239.48 53.5391 239.59 54.4609V55C239.48 55.8828 239.305 56.7031 239.062 57.4609C238.82 58.2188 238.5 58.8828 238.102 59.4531C237.711 60.0156 237.234 60.4531 236.672 60.7656C236.109 61.0781 235.453 61.2344 234.703 61.2344C233.914 61.2344 233.211 61.0742 232.594 60.7539C231.984 60.4336 231.469 59.9844 231.047 59.4062C230.633 58.8281 230.316 58.1484 230.098 57.3672C229.879 56.5859 229.77 55.7344 229.77 54.8125ZM233.145 54.5664V54.8125C233.145 55.3359 233.184 55.8242 233.262 56.2773C233.348 56.7305 233.484 57.1328 233.672 57.4844C233.867 57.8281 234.117 58.0977 234.422 58.293C234.734 58.4805 235.113 58.5742 235.559 58.5742C236.137 58.5742 236.613 58.4453 236.988 58.1875C237.363 57.9219 237.648 57.5586 237.844 57.0977C238.047 56.6367 238.164 56.1055 238.195 55.5039V53.9688C238.172 53.4766 238.102 53.0352 237.984 52.6445C237.875 52.2461 237.711 51.9062 237.492 51.625C237.281 51.3438 237.016 51.125 236.695 50.9688C236.383 50.8125 236.012 50.7344 235.582 50.7344C235.145 50.7344 234.77 50.8359 234.457 51.0391C234.145 51.2344 233.891 51.5039 233.695 51.8477C233.508 52.1914 233.367 52.5977 233.273 53.0664C233.188 53.5273 233.145 54.0273 233.145 54.5664ZM247.383 48.3203V61H243.996V48.3203H247.383ZM243.785 45.0156C243.785 44.5234 243.957 44.1172 244.301 43.7969C244.645 43.4766 245.105 43.3164 245.684 43.3164C246.254 43.3164 246.711 43.4766 247.055 43.7969C247.406 44.1172 247.582 44.5234 247.582 45.0156C247.582 45.5078 247.406 45.9141 247.055 46.2344C246.711 46.5547 246.254 46.7148 245.684 46.7148C245.105 46.7148 244.645 46.5547 244.301 46.2344C243.957 45.9141 243.785 45.5078 243.785 45.0156ZM249.633 54.7891V54.543C249.633 53.6133 249.766 52.7578 250.031 51.9766C250.297 51.1875 250.684 50.5039 251.191 49.9258C251.699 49.3477 252.324 48.8984 253.066 48.5781C253.809 48.25 254.66 48.0859 255.621 48.0859C256.582 48.0859 257.438 48.25 258.188 48.5781C258.938 48.8984 259.566 49.3477 260.074 49.9258C260.59 50.5039 260.98 51.1875 261.246 51.9766C261.512 52.7578 261.645 53.6133 261.645 54.543V54.7891C261.645 55.7109 261.512 56.5664 261.246 57.3555C260.98 58.1367 260.59 58.8203 260.074 59.4062C259.566 59.9844 258.941 60.4336 258.199 60.7539C257.457 61.0742 256.605 61.2344 255.645 61.2344C254.684 61.2344 253.828 61.0742 253.078 60.7539C252.336 60.4336 251.707 59.9844 251.191 59.4062C250.684 58.8203 250.297 58.1367 250.031 57.3555C249.766 56.5664 249.633 55.7109 249.633 54.7891ZM253.008 54.543V54.7891C253.008 55.3203 253.055 55.8164 253.148 56.2773C253.242 56.7383 253.391 57.1445 253.594 57.4961C253.805 57.8398 254.078 58.1094 254.414 58.3047C254.75 58.5 255.16 58.5977 255.645 58.5977C256.113 58.5977 256.516 58.5 256.852 58.3047C257.188 58.1094 257.457 57.8398 257.66 57.4961C257.863 57.1445 258.012 56.7383 258.105 56.2773C258.207 55.8164 258.258 55.3203 258.258 54.7891V54.543C258.258 54.0273 258.207 53.543 258.105 53.0898C258.012 52.6289 257.859 52.2227 257.648 51.8711C257.445 51.5117 257.176 51.2305 256.84 51.0273C256.504 50.8242 256.098 50.7227 255.621 50.7227C255.145 50.7227 254.738 50.8242 254.402 51.0273C254.074 51.2305 253.805 51.5117 253.594 51.8711C253.391 52.2227 253.242 52.6289 253.148 53.0898C253.055 53.543 253.008 54.0273 253.008 54.543Z" fill="#888888"/>
<path d="M112.125 84.875V119H103.898V84.875H112.125ZM122.391 84.875V91.2266H93.8672V84.875H122.391ZM135.68 119.469C133.617 119.469 131.773 119.148 130.148 118.508C128.523 117.852 127.148 116.953 126.023 115.812C124.914 114.672 124.062 113.359 123.469 111.875C122.891 110.391 122.602 108.82 122.602 107.164V106.273C122.602 104.414 122.859 102.695 123.375 101.117C123.891 99.5234 124.656 98.1328 125.672 96.9453C126.688 95.7578 127.961 94.8359 129.492 94.1797C131.023 93.5078 132.805 93.1719 134.836 93.1719C136.633 93.1719 138.242 93.4609 139.664 94.0391C141.086 94.6172 142.289 95.4453 143.273 96.5234C144.273 97.6016 145.031 98.9062 145.547 100.438C146.078 101.969 146.344 103.688 146.344 105.594V108.805H125.625V103.859H138.633V103.25C138.648 102.406 138.5 101.688 138.188 101.094C137.891 100.5 137.453 100.047 136.875 99.7344C136.297 99.4219 135.594 99.2656 134.766 99.2656C133.906 99.2656 133.195 99.4531 132.633 99.8281C132.086 100.203 131.656 100.719 131.344 101.375C131.047 102.016 130.836 102.758 130.711 103.602C130.586 104.445 130.523 105.336 130.523 106.273V107.164C130.523 108.102 130.648 108.953 130.898 109.719C131.164 110.484 131.539 111.141 132.023 111.688C132.523 112.219 133.117 112.633 133.805 112.93C134.508 113.227 135.305 113.375 136.195 113.375C137.273 113.375 138.336 113.172 139.383 112.766C140.43 112.359 141.328 111.688 142.078 110.75L145.664 115.016C145.148 115.75 144.414 116.461 143.461 117.148C142.523 117.836 141.398 118.398 140.086 118.836C138.773 119.258 137.305 119.469 135.68 119.469ZM160.266 113.375C161 113.375 161.625 113.242 162.141 112.977C162.672 112.695 163.07 112.305 163.336 111.805C163.617 111.289 163.75 110.672 163.734 109.953H171.164C171.18 111.859 170.711 113.531 169.758 114.969C168.82 116.391 167.539 117.5 165.914 118.297C164.305 119.078 162.484 119.469 160.453 119.469C158.469 119.469 156.734 119.148 155.25 118.508C153.766 117.852 152.523 116.945 151.523 115.789C150.539 114.617 149.797 113.25 149.297 111.688C148.812 110.125 148.57 108.43 148.57 106.602V106.062C148.57 104.234 148.812 102.539 149.297 100.977C149.797 99.3984 150.539 98.0312 151.523 96.875C152.523 95.7031 153.758 94.7969 155.227 94.1562C156.711 93.5 158.438 93.1719 160.406 93.1719C162.516 93.1719 164.375 93.5703 165.984 94.3672C167.609 95.1641 168.883 96.3203 169.805 97.8359C170.727 99.3516 171.18 101.188 171.164 103.344H163.734C163.75 102.578 163.633 101.891 163.383 101.281C163.133 100.672 162.742 100.188 162.211 99.8281C161.695 99.4531 161.031 99.2656 160.219 99.2656C159.406 99.2656 158.75 99.4453 158.25 99.8047C157.75 100.164 157.367 100.664 157.102 101.305C156.852 101.93 156.68 102.648 156.586 103.461C156.508 104.273 156.469 105.141 156.469 106.062V106.602C156.469 107.539 156.508 108.422 156.586 109.25C156.68 110.062 156.859 110.781 157.125 111.406C157.391 112.016 157.773 112.5 158.273 112.859C158.773 113.203 159.438 113.375 160.266 113.375ZM182.273 83V119H174.375V83H182.273ZM181.336 105.453L179.484 105.5C179.484 103.719 179.703 102.078 180.141 100.578C180.578 99.0781 181.203 97.7734 182.016 96.6641C182.828 95.5547 183.805 94.6953 184.945 94.0859C186.086 93.4766 187.352 93.1719 188.742 93.1719C189.992 93.1719 191.133 93.3516 192.164 93.7109C193.211 94.0703 194.109 94.6484 194.859 95.4453C195.625 96.2422 196.211 97.2812 196.617 98.5625C197.039 99.8438 197.25 101.406 197.25 103.25V119H189.305V103.203C189.305 102.172 189.156 101.375 188.859 100.812C188.578 100.234 188.172 99.8359 187.641 99.6172C187.109 99.3828 186.461 99.2656 185.695 99.2656C184.773 99.2656 184.023 99.4219 183.445 99.7344C182.867 100.047 182.422 100.484 182.109 101.047C181.812 101.594 181.609 102.242 181.5 102.992C181.391 103.742 181.336 104.562 181.336 105.453ZM231.539 109.93C231.539 109.398 231.461 108.922 231.305 108.5C231.148 108.062 230.859 107.656 230.438 107.281C230.016 106.906 229.406 106.531 228.609 106.156C227.828 105.766 226.797 105.359 225.516 104.938C224.016 104.438 222.57 103.875 221.18 103.25C219.789 102.609 218.547 101.867 217.453 101.023C216.359 100.164 215.492 99.1641 214.852 98.0234C214.211 96.8672 213.891 95.5234 213.891 93.9922C213.891 92.5234 214.219 91.2031 214.875 90.0312C215.531 88.8438 216.445 87.8359 217.617 87.0078C218.805 86.1641 220.195 85.5234 221.789 85.0859C223.383 84.6328 225.125 84.4062 227.016 84.4062C229.516 84.4062 231.719 84.8438 233.625 85.7188C235.547 86.5781 237.047 87.8047 238.125 89.3984C239.219 90.9766 239.766 92.8438 239.766 95H231.586C231.586 94.1406 231.406 93.3828 231.047 92.7266C230.703 92.0703 230.18 91.5547 229.477 91.1797C228.773 90.8047 227.891 90.6172 226.828 90.6172C225.797 90.6172 224.93 90.7734 224.227 91.0859C223.523 91.3984 222.992 91.8203 222.633 92.3516C222.273 92.8672 222.094 93.4375 222.094 94.0625C222.094 94.5781 222.234 95.0469 222.516 95.4688C222.812 95.875 223.227 96.2578 223.758 96.6172C224.305 96.9766 224.961 97.3203 225.727 97.6484C226.508 97.9766 227.383 98.2969 228.352 98.6094C230.164 99.1875 231.773 99.8359 233.18 100.555C234.602 101.258 235.797 102.062 236.766 102.969C237.75 103.859 238.492 104.875 238.992 106.016C239.508 107.156 239.766 108.445 239.766 109.883C239.766 111.414 239.469 112.773 238.875 113.961C238.281 115.148 237.43 116.156 236.32 116.984C235.211 117.797 233.883 118.414 232.336 118.836C230.789 119.258 229.062 119.469 227.156 119.469C225.406 119.469 223.68 119.25 221.977 118.812C220.289 118.359 218.758 117.672 217.383 116.75C216.008 115.812 214.906 114.617 214.078 113.164C213.266 111.695 212.859 109.953 212.859 107.938H221.109C221.109 108.938 221.242 109.781 221.508 110.469C221.773 111.156 222.164 111.711 222.68 112.133C223.195 112.539 223.828 112.836 224.578 113.023C225.328 113.195 226.188 113.281 227.156 113.281C228.203 113.281 229.047 113.133 229.688 112.836C230.328 112.523 230.797 112.117 231.094 111.617C231.391 111.102 231.539 110.539 231.539 109.93ZM256.992 93.6406V99.125H241.711V93.6406H256.992ZM244.922 87.3359H252.82V110.727C252.82 111.398 252.898 111.922 253.055 112.297C253.211 112.656 253.477 112.914 253.852 113.07C254.242 113.211 254.758 113.281 255.398 113.281C255.852 113.281 256.227 113.273 256.523 113.258C256.82 113.227 257.102 113.188 257.367 113.141V118.789C256.695 119.008 255.992 119.172 255.258 119.281C254.523 119.406 253.742 119.469 252.914 119.469C251.227 119.469 249.781 119.203 248.578 118.672C247.391 118.141 246.484 117.305 245.859 116.164C245.234 115.023 244.922 113.539 244.922 111.711V87.3359ZM273.305 112.625V102.172C273.305 101.453 273.203 100.836 273 100.32C272.797 99.8047 272.477 99.4062 272.039 99.125C271.602 98.8281 271.016 98.6797 270.281 98.6797C269.688 98.6797 269.18 98.7812 268.758 98.9844C268.336 99.1875 268.016 99.4922 267.797 99.8984C267.578 100.305 267.469 100.82 267.469 101.445H259.57C259.57 100.273 259.828 99.1875 260.344 98.1875C260.875 97.1719 261.625 96.2891 262.594 95.5391C263.578 94.7891 264.75 94.2109 266.109 93.8047C267.484 93.3828 269.016 93.1719 270.703 93.1719C272.719 93.1719 274.516 93.5078 276.094 94.1797C277.688 94.8516 278.945 95.8594 279.867 97.2031C280.789 98.5312 281.25 100.203 281.25 102.219V112.602C281.25 114.258 281.344 115.516 281.531 116.375C281.719 117.219 281.984 117.961 282.328 118.602V119H274.406C274.031 118.219 273.75 117.266 273.562 116.141C273.391 115 273.305 113.828 273.305 112.625ZM274.266 103.508L274.312 107.727H270.82C270.086 107.727 269.461 107.828 268.945 108.031C268.445 108.234 268.039 108.516 267.727 108.875C267.43 109.219 267.211 109.609 267.07 110.047C266.945 110.484 266.883 110.945 266.883 111.43C266.883 111.898 266.992 112.32 267.211 112.695C267.445 113.055 267.758 113.336 268.148 113.539C268.539 113.742 268.977 113.844 269.461 113.844C270.336 113.844 271.078 113.68 271.688 113.352C272.312 113.008 272.789 112.594 273.117 112.109C273.445 111.625 273.609 111.172 273.609 110.75L275.344 113.984C275.031 114.609 274.672 115.242 274.266 115.883C273.875 116.523 273.383 117.117 272.789 117.664C272.211 118.195 271.5 118.633 270.656 118.977C269.812 119.305 268.789 119.469 267.586 119.469C266.023 119.469 264.586 119.148 263.273 118.508C261.977 117.867 260.938 116.977 260.156 115.836C259.375 114.68 258.984 113.352 258.984 111.852C258.984 110.539 259.219 109.367 259.688 108.336C260.172 107.305 260.898 106.43 261.867 105.711C262.836 104.992 264.07 104.445 265.57 104.07C267.07 103.695 268.836 103.508 270.867 103.508H274.266ZM296.344 113.375C297.078 113.375 297.703 113.242 298.219 112.977C298.75 112.695 299.148 112.305 299.414 111.805C299.695 111.289 299.828 110.672 299.812 109.953H307.242C307.258 111.859 306.789 113.531 305.836 114.969C304.898 116.391 303.617 117.5 301.992 118.297C300.383 119.078 298.562 119.469 296.531 119.469C294.547 119.469 292.812 119.148 291.328 118.508C289.844 117.852 288.602 116.945 287.602 115.789C286.617 114.617 285.875 113.25 285.375 111.688C284.891 110.125 284.648 108.43 284.648 106.602V106.062C284.648 104.234 284.891 102.539 285.375 100.977C285.875 99.3984 286.617 98.0312 287.602 96.875C288.602 95.7031 289.836 94.7969 291.305 94.1562C292.789 93.5 294.516 93.1719 296.484 93.1719C298.594 93.1719 300.453 93.5703 302.062 94.3672C303.688 95.1641 304.961 96.3203 305.883 97.8359C306.805 99.3516 307.258 101.188 307.242 103.344H299.812C299.828 102.578 299.711 101.891 299.461 101.281C299.211 100.672 298.82 100.188 298.289 99.8281C297.773 99.4531 297.109 99.2656 296.297 99.2656C295.484 99.2656 294.828 99.4453 294.328 99.8047C293.828 100.164 293.445 100.664 293.18 101.305C292.93 101.93 292.758 102.648 292.664 103.461C292.586 104.273 292.547 105.141 292.547 106.062V106.602C292.547 107.539 292.586 108.422 292.664 109.25C292.758 110.062 292.938 110.781 293.203 111.406C293.469 112.016 293.852 112.5 294.352 112.859C294.852 113.203 295.516 113.375 296.344 113.375ZM318.586 82.9766V119H310.688V82.9766H318.586ZM334.805 93.6406L323.789 106.555L318.023 112.32L314.578 107.305L319.383 101.047L325.336 93.6406H334.805ZM326.344 119L319.57 107.445L325.406 103.297L335.391 119H326.344ZM350.156 111.875C350.156 111.438 350.008 111.062 349.711 110.75C349.43 110.422 348.93 110.125 348.211 109.859C347.492 109.578 346.484 109.297 345.188 109.016C343.953 108.75 342.789 108.398 341.695 107.961C340.617 107.523 339.672 106.992 338.859 106.367C338.047 105.742 337.406 105 336.938 104.141C336.484 103.281 336.258 102.297 336.258 101.188C336.258 100.109 336.484 99.0938 336.938 98.1406C337.406 97.1719 338.086 96.3203 338.977 95.5859C339.883 94.8359 340.984 94.25 342.281 93.8281C343.578 93.3906 345.055 93.1719 346.711 93.1719C348.992 93.1719 350.961 93.5234 352.617 94.2266C354.273 94.9141 355.547 95.8828 356.438 97.1328C357.344 98.3672 357.797 99.7969 357.797 101.422H349.898C349.898 100.781 349.789 100.234 349.57 99.7812C349.367 99.3281 349.031 98.9844 348.562 98.75C348.094 98.5 347.469 98.375 346.688 98.375C346.141 98.375 345.641 98.4766 345.188 98.6797C344.75 98.8828 344.398 99.1641 344.133 99.5234C343.867 99.8828 343.734 100.305 343.734 100.789C343.734 101.133 343.812 101.445 343.969 101.727C344.141 101.992 344.398 102.242 344.742 102.477C345.086 102.695 345.523 102.898 346.055 103.086C346.586 103.258 347.227 103.414 347.977 103.555C349.68 103.867 351.273 104.312 352.758 104.891C354.242 105.469 355.445 106.289 356.367 107.352C357.305 108.414 357.773 109.844 357.773 111.641C357.773 112.766 357.516 113.805 357 114.758C356.484 115.695 355.742 116.523 354.773 117.242C353.805 117.945 352.641 118.492 351.281 118.883C349.922 119.273 348.391 119.469 346.688 119.469C344.266 119.469 342.219 119.039 340.547 118.18C338.875 117.305 337.609 116.211 336.75 114.898C335.906 113.57 335.484 112.227 335.484 110.867H342.844C342.875 111.648 343.062 112.289 343.406 112.789C343.766 113.289 344.242 113.656 344.836 113.891C345.43 114.125 346.117 114.242 346.898 114.242C347.617 114.242 348.211 114.141 348.68 113.938C349.164 113.734 349.531 113.461 349.781 113.117C350.031 112.758 350.156 112.344 350.156 111.875Z" fill="black"/>
<path d="M1134 0H1348C1356.28 0 1363 6.71573 1363 15V148C1363 156.284 1356.28 163 1348 163H1134V0Z" fill="#FF6F61"/>
<path fill-rule="evenodd" clip-rule="evenodd" d="M1219.98 53C1219.85 53 1219.73 53.0527 1219.64 53.1464C1219.55 53.2402 1219.5 53.3674 1219.5 53.5V109.5C1219.5 109.633 1219.55 109.76 1219.64 109.854C1219.73 109.947 1219.85 110 1219.98 110H1277.02C1277.15 110 1277.27 109.947 1277.36 109.854C1277.45 109.76 1277.5 109.633 1277.5 109.5V64C1277.5 63.8674 1277.45 63.7402 1277.36 63.6464C1277.27 63.5527 1277.15 63.5 1277.02 63.5H1248.5C1247.65 63.5 1246.84 63.1045 1246.29 62.4206L1238.77 53H1219.98ZM1215.58 48.9038C1216.74 47.6848 1218.33 47 1219.98 47H1240.11C1240.97 47 1241.77 47.3955 1242.32 48.0794L1249.85 57.5H1277.02C1278.67 57.5 1280.26 58.1848 1281.42 59.4038C1282.59 60.6228 1283.25 62.2761 1283.25 64V109.5C1283.25 111.224 1282.59 112.877 1281.42 114.096C1280.26 115.315 1278.67 116 1277.02 116H1219.98C1218.33 116 1216.74 115.315 1215.58 114.096C1214.41 112.877 1213.75 111.224 1213.75 109.5V53.5C1213.75 51.7761 1214.41 50.1228 1215.58 48.9038Z" fill="white"/>
<path fill-rule="evenodd" clip-rule="evenodd" d="M1244.16 75.5251C1245.47 76.892 1245.47 79.108 1244.16 80.4749L1238.15 86.75L1244.16 93.0251C1245.47 94.392 1245.47 96.608 1244.16 97.9749C1242.85 99.3417 1240.73 99.3417 1239.42 97.9749L1231.03 89.2249C1229.72 87.858 1229.72 85.642 1231.03 84.2751L1239.42 75.5251C1240.73 74.1583 1242.85 74.1583 1244.16 75.5251Z" fill="white"/>
<path fill-rule="evenodd" clip-rule="evenodd" d="M1252.12 97.9749C1250.81 96.608 1250.81 94.392 1252.12 93.0251L1258.13 86.75L1252.12 80.4749C1250.81 79.108 1250.81 76.892 1252.12 75.5251C1253.43 74.1583 1255.55 74.1583 1256.86 75.5251L1265.25 84.2751C1266.56 85.642 1266.56 87.858 1265.25 89.2249L1256.86 97.9749C1255.55 99.3417 1253.43 99.3417 1252.12 97.9749Z" fill="white"/>
</svg>
