<svg width="1363" height="163" viewBox="0 0 1363 163" fill="none" xmlns="http://www.w3.org/2000/svg">
<path d="M0 15C0 6.71573 6.71573 0 15 0H37V163H15C6.71573 163 0 156.284 0 148V15Z" fill="#424242"/>
<rect width="1097" height="163" transform="translate(37)" fill="#F0F0F0"/>
<path d="M101.906 53.9219L94.3945 51.2383V48.0859L104.602 52.375V54.6367L101.906 53.9219ZM94.3945 56.1719L101.918 53.4297L104.602 52.7852V55.0352L94.3945 59.3242V56.1719ZM122.789 55.3398H126.293C126.223 56.4883 125.906 57.5078 125.344 58.3984C124.789 59.2891 124.012 59.9844 123.012 60.4844C122.02 60.9844 120.824 61.2344 119.426 61.2344C118.332 61.2344 117.352 61.0469 116.484 60.6719C115.617 60.2891 114.875 59.7422 114.258 59.0312C113.648 58.3203 113.184 57.4609 112.863 56.4531C112.543 55.4453 112.383 54.3164 112.383 53.0664V51.8828C112.383 50.6328 112.547 49.5039 112.875 48.4961C113.211 47.4805 113.688 46.6172 114.305 45.9062C114.93 45.1953 115.676 44.6484 116.543 44.2656C117.41 43.8828 118.379 43.6914 119.449 43.6914C120.871 43.6914 122.07 43.9492 123.047 44.4648C124.031 44.9805 124.793 45.6914 125.332 46.5977C125.879 47.5039 126.207 48.5352 126.316 49.6914H122.801C122.762 49.0039 122.625 48.4219 122.391 47.9453C122.156 47.4609 121.801 47.0977 121.324 46.8555C120.855 46.6055 120.23 46.4805 119.449 46.4805C118.863 46.4805 118.352 46.5898 117.914 46.8086C117.477 47.0273 117.109 47.3594 116.812 47.8047C116.516 48.25 116.293 48.8125 116.145 49.4922C116.004 50.1641 115.934 50.9531 115.934 51.8594V53.0664C115.934 53.9492 116 54.7266 116.133 55.3984C116.266 56.0625 116.469 56.625 116.742 57.0859C117.023 57.5391 117.383 57.8828 117.82 58.1172C118.266 58.3438 118.801 58.457 119.426 58.457C120.16 58.457 120.766 58.3398 121.242 58.1055C121.719 57.8711 122.082 57.5234 122.332 57.0625C122.59 56.6016 122.742 56.0273 122.789 55.3398ZM127.852 54.7891V54.543C127.852 53.6133 127.984 52.7578 128.25 51.9766C128.516 51.1875 128.902 50.5039 129.41 49.9258C129.918 49.3477 130.543 48.8984 131.285 48.5781C132.027 48.25 132.879 48.0859 133.84 48.0859C134.801 48.0859 135.656 48.25 136.406 48.5781C137.156 48.8984 137.785 49.3477 138.293 49.9258C138.809 50.5039 139.199 51.1875 139.465 51.9766C139.73 52.7578 139.863 53.6133 139.863 54.543V54.7891C139.863 55.7109 139.73 56.5664 139.465 57.3555C139.199 58.1367 138.809 58.8203 138.293 59.4062C137.785 59.9844 137.16 60.4336 136.418 60.7539C135.676 61.0742 134.824 61.2344 133.863 61.2344C132.902 61.2344 132.047 61.0742 131.297 60.7539C130.555 60.4336 129.926 59.9844 129.41 59.4062C128.902 58.8203 128.516 58.1367 128.25 57.3555C127.984 56.5664 127.852 55.7109 127.852 54.7891ZM131.227 54.543V54.7891C131.227 55.3203 131.273 55.8164 131.367 56.2773C131.461 56.7383 131.609 57.1445 131.812 57.4961C132.023 57.8398 132.297 58.1094 132.633 58.3047C132.969 58.5 133.379 58.5977 133.863 58.5977C134.332 58.5977 134.734 58.5 135.07 58.3047C135.406 58.1094 135.676 57.8398 135.879 57.4961C136.082 57.1445 136.23 56.7383 136.324 56.2773C136.426 55.8164 136.477 55.3203 136.477 54.7891V54.543C136.477 54.0273 136.426 53.543 136.324 53.0898C136.23 52.6289 136.078 52.2227 135.867 51.8711C135.664 51.5117 135.395 51.2305 135.059 51.0273C134.723 50.8242 134.316 50.7227 133.84 50.7227C133.363 50.7227 132.957 50.8242 132.621 51.0273C132.293 51.2305 132.023 51.5117 131.812 51.8711C131.609 52.2227 131.461 52.6289 131.367 53.0898C131.273 53.543 131.227 54.0273 131.227 54.543ZM145.312 50.9453V61H141.926V48.3203H145.102L145.312 50.9453ZM144.844 54.2148H143.906C143.906 53.332 144.012 52.5195 144.223 51.7773C144.441 51.0273 144.758 50.3789 145.172 49.832C145.594 49.2773 146.113 48.8477 146.73 48.543C147.348 48.2383 148.062 48.0859 148.875 48.0859C149.438 48.0859 149.953 48.1719 150.422 48.3438C150.891 48.5078 151.293 48.7695 151.629 49.1289C151.973 49.4805 152.238 49.9414 152.426 50.5117C152.613 51.0742 152.707 51.75 152.707 52.5391V61H149.332V52.9141C149.332 52.3359 149.254 51.8906 149.098 51.5781C148.941 51.2656 148.719 51.0469 148.43 50.9219C148.148 50.7969 147.809 50.7344 147.41 50.7344C146.973 50.7344 146.59 50.8242 146.262 51.0039C145.941 51.1836 145.676 51.4336 145.465 51.7539C145.254 52.0664 145.098 52.4336 144.996 52.8555C144.895 53.2773 144.844 53.7305 144.844 54.2148ZM152.391 53.8281L151.184 53.9805C151.184 53.1523 151.285 52.3828 151.488 51.6719C151.699 50.9609 152.008 50.3359 152.414 49.7969C152.828 49.2578 153.34 48.8398 153.949 48.543C154.559 48.2383 155.262 48.0859 156.059 48.0859C156.668 48.0859 157.223 48.1758 157.723 48.3555C158.223 48.5273 158.648 48.8047 159 49.1875C159.359 49.5625 159.633 50.0547 159.82 50.6641C160.016 51.2734 160.113 52.0195 160.113 52.9023V61H156.727V52.9023C156.727 52.3164 156.648 51.8711 156.492 51.5664C156.344 51.2539 156.125 51.0391 155.836 50.9219C155.555 50.7969 155.219 50.7344 154.828 50.7344C154.422 50.7344 154.066 50.8164 153.762 50.9805C153.457 51.1367 153.203 51.3555 153 51.6367C152.797 51.918 152.645 52.2461 152.543 52.6211C152.441 52.9883 152.391 53.3906 152.391 53.8281ZM166.289 48.3203V61H162.902V48.3203H166.289ZM162.691 45.0156C162.691 44.5234 162.863 44.1172 163.207 43.7969C163.551 43.4766 164.012 43.3164 164.59 43.3164C165.16 43.3164 165.617 43.4766 165.961 43.7969C166.312 44.1172 166.488 44.5234 166.488 45.0156C166.488 45.5078 166.312 45.9141 165.961 46.2344C165.617 46.5547 165.16 46.7148 164.59 46.7148C164.012 46.7148 163.551 46.5547 163.207 46.2344C162.863 45.9141 162.691 45.5078 162.691 45.0156ZM174.316 58.5977C174.73 58.5977 175.098 58.5195 175.418 58.3633C175.738 58.1992 175.988 57.9727 176.168 57.6836C176.355 57.3867 176.453 57.0391 176.461 56.6406H179.637C179.629 57.5312 179.391 58.3242 178.922 59.0195C178.453 59.707 177.824 60.25 177.035 60.6484C176.246 61.0391 175.363 61.2344 174.387 61.2344C173.402 61.2344 172.543 61.0703 171.809 60.7422C171.082 60.4141 170.477 59.9609 169.992 59.3828C169.508 58.7969 169.145 58.1172 168.902 57.3438C168.66 56.5625 168.539 55.7266 168.539 54.8359V54.4961C168.539 53.5977 168.66 52.7617 168.902 51.9883C169.145 51.207 169.508 50.5273 169.992 49.9492C170.477 49.3633 171.082 48.9062 171.809 48.5781C172.535 48.25 173.387 48.0859 174.363 48.0859C175.402 48.0859 176.312 48.2852 177.094 48.6836C177.883 49.082 178.5 49.6523 178.945 50.3945C179.398 51.1289 179.629 52 179.637 53.0078H176.461C176.453 52.5859 176.363 52.2031 176.191 51.8594C176.027 51.5156 175.785 51.2422 175.465 51.0391C175.152 50.8281 174.766 50.7227 174.305 50.7227C173.812 50.7227 173.41 50.8281 173.098 51.0391C172.785 51.2422 172.543 51.5234 172.371 51.8828C172.199 52.2344 172.078 52.6367 172.008 53.0898C171.945 53.5352 171.914 54.0039 171.914 54.4961V54.8359C171.914 55.3281 171.945 55.8008 172.008 56.2539C172.07 56.707 172.188 57.1094 172.359 57.4609C172.539 57.8125 172.785 58.0898 173.098 58.293C173.41 58.4961 173.816 58.5977 174.316 58.5977ZM188.449 57.4961C188.449 57.2539 188.379 57.0352 188.238 56.8398C188.098 56.6445 187.836 56.4648 187.453 56.3008C187.078 56.1289 186.535 55.9727 185.824 55.832C185.184 55.6914 184.586 55.5156 184.031 55.3047C183.484 55.0859 183.008 54.8242 182.602 54.5195C182.203 54.2148 181.891 53.8555 181.664 53.4414C181.438 53.0195 181.324 52.5391 181.324 52C181.324 51.4688 181.438 50.9688 181.664 50.5C181.898 50.0312 182.23 49.6172 182.66 49.2578C183.098 48.8906 183.629 48.6055 184.254 48.4023C184.887 48.1914 185.598 48.0859 186.387 48.0859C187.488 48.0859 188.434 48.2617 189.223 48.6133C190.02 48.9648 190.629 49.4492 191.051 50.0664C191.48 50.6758 191.695 51.3711 191.695 52.1523H188.32C188.32 51.8242 188.25 51.5312 188.109 51.2734C187.977 51.0078 187.766 50.8008 187.477 50.6523C187.195 50.4961 186.828 50.418 186.375 50.418C186 50.418 185.676 50.4844 185.402 50.6172C185.129 50.7422 184.918 50.9141 184.77 51.1328C184.629 51.3438 184.559 51.5781 184.559 51.8359C184.559 52.0312 184.598 52.207 184.676 52.3633C184.762 52.5117 184.898 52.6484 185.086 52.7734C185.273 52.8984 185.516 53.0156 185.812 53.125C186.117 53.2266 186.492 53.3203 186.938 53.4062C187.852 53.5938 188.668 53.8398 189.387 54.1445C190.105 54.4414 190.676 54.8477 191.098 55.3633C191.52 55.8711 191.73 56.5391 191.73 57.3672C191.73 57.9297 191.605 58.4453 191.355 58.9141C191.105 59.3828 190.746 59.793 190.277 60.1445C189.809 60.4883 189.246 60.7578 188.59 60.9531C187.941 61.1406 187.211 61.2344 186.398 61.2344C185.219 61.2344 184.219 61.0234 183.398 60.6016C182.586 60.1797 181.969 59.6445 181.547 58.9961C181.133 58.3398 180.926 57.668 180.926 56.9805H184.125C184.141 57.4414 184.258 57.8125 184.477 58.0938C184.703 58.375 184.988 58.5781 185.332 58.7031C185.684 58.8281 186.062 58.8906 186.469 58.8906C186.906 58.8906 187.27 58.832 187.559 58.7148C187.848 58.5898 188.066 58.4258 188.215 58.2227C188.371 58.0117 188.449 57.7695 188.449 57.4961ZM203.016 56.5352C203.016 56.2305 202.969 55.957 202.875 55.7148C202.789 55.4648 202.625 55.2383 202.383 55.0352C202.141 54.8242 201.801 54.6172 201.363 54.4141C200.926 54.2109 200.359 54 199.664 53.7812C198.891 53.5312 198.156 53.25 197.461 52.9375C196.773 52.625 196.164 52.2617 195.633 51.8477C195.109 51.4258 194.695 50.9375 194.391 50.3828C194.094 49.8281 193.945 49.1836 193.945 48.4492C193.945 47.7383 194.102 47.0938 194.414 46.5156C194.727 45.9297 195.164 45.4297 195.727 45.0156C196.289 44.5938 196.953 44.2695 197.719 44.043C198.492 43.8164 199.34 43.7031 200.262 43.7031C201.52 43.7031 202.617 43.9297 203.555 44.3828C204.492 44.8359 205.219 45.457 205.734 46.2461C206.258 47.0352 206.52 47.9375 206.52 48.9531H203.027C203.027 48.4531 202.922 48.0156 202.711 47.6406C202.508 47.2578 202.195 46.957 201.773 46.7383C201.359 46.5195 200.836 46.4102 200.203 46.4102C199.594 46.4102 199.086 46.5039 198.68 46.6914C198.273 46.8711 197.969 47.1172 197.766 47.4297C197.562 47.7344 197.461 48.0781 197.461 48.4609C197.461 48.75 197.531 49.0117 197.672 49.2461C197.82 49.4805 198.039 49.6992 198.328 49.9023C198.617 50.1055 198.973 50.2969 199.395 50.4766C199.816 50.6562 200.305 50.832 200.859 51.0039C201.789 51.2852 202.605 51.6016 203.309 51.9531C204.02 52.3047 204.613 52.6992 205.09 53.1367C205.566 53.5742 205.926 54.0703 206.168 54.625C206.41 55.1797 206.531 55.8086 206.531 56.5117C206.531 57.2539 206.387 57.918 206.098 58.5039C205.809 59.0898 205.391 59.5859 204.844 59.9922C204.297 60.3984 203.645 60.707 202.887 60.918C202.129 61.1289 201.281 61.2344 200.344 61.2344C199.5 61.2344 198.668 61.125 197.848 60.9062C197.027 60.6797 196.281 60.3398 195.609 59.8867C194.945 59.4336 194.414 58.8555 194.016 58.1523C193.617 57.4492 193.418 56.6172 193.418 55.6562H196.945C196.945 56.1875 197.027 56.6367 197.191 57.0039C197.355 57.3711 197.586 57.668 197.883 57.8945C198.188 58.1211 198.547 58.2852 198.961 58.3867C199.383 58.4883 199.844 58.5391 200.344 58.5391C200.953 58.5391 201.453 58.4531 201.844 58.2812C202.242 58.1094 202.535 57.8711 202.723 57.5664C202.918 57.2617 203.016 56.918 203.016 56.5352ZM214.922 48.3203V50.7109H207.539V48.3203H214.922ZM209.367 45.1914H212.742V57.1797C212.742 57.5469 212.789 57.8281 212.883 58.0234C212.984 58.2188 213.133 58.3555 213.328 58.4336C213.523 58.5039 213.77 58.5391 214.066 58.5391C214.277 58.5391 214.465 58.5312 214.629 58.5156C214.801 58.4922 214.945 58.4688 215.062 58.4453L215.074 60.9297C214.785 61.0234 214.473 61.0977 214.137 61.1523C213.801 61.207 213.43 61.2344 213.023 61.2344C212.281 61.2344 211.633 61.1133 211.078 60.8711C210.531 60.6211 210.109 60.2227 209.812 59.6758C209.516 59.1289 209.367 58.4102 209.367 57.5195V45.1914ZM224.344 57.9648V48.3203H227.719V61H224.543L224.344 57.9648ZM224.719 55.3633L225.715 55.3398C225.715 56.1836 225.617 56.9688 225.422 57.6953C225.227 58.4141 224.934 59.0391 224.543 59.5703C224.152 60.0938 223.66 60.5039 223.066 60.8008C222.473 61.0898 221.773 61.2344 220.969 61.2344C220.352 61.2344 219.781 61.1484 219.258 60.9766C218.742 60.7969 218.297 60.5195 217.922 60.1445C217.555 59.7617 217.266 59.2734 217.055 58.6797C216.852 58.0781 216.75 57.3555 216.75 56.5117V48.3203H220.125V56.5352C220.125 56.9102 220.168 57.2266 220.254 57.4844C220.348 57.7422 220.477 57.9531 220.641 58.1172C220.805 58.2812 220.996 58.3984 221.215 58.4688C221.441 58.5391 221.691 58.5742 221.965 58.5742C222.66 58.5742 223.207 58.4336 223.605 58.1523C224.012 57.8711 224.297 57.4883 224.461 57.0039C224.633 56.5117 224.719 55.9648 224.719 55.3633ZM237.785 58.2344V43H241.184V61H238.125L237.785 58.2344ZM229.77 54.8125V54.5664C229.77 53.5977 229.879 52.7188 230.098 51.9297C230.316 51.1328 230.637 50.4492 231.059 49.8789C231.48 49.3086 232 48.8672 232.617 48.5547C233.234 48.2422 233.938 48.0859 234.727 48.0859C235.469 48.0859 236.117 48.2422 236.672 48.5547C237.234 48.8672 237.711 49.3125 238.102 49.8906C238.5 50.4609 238.82 51.1367 239.062 51.918C239.305 52.6914 239.48 53.5391 239.59 54.4609V55C239.48 55.8828 239.305 56.7031 239.062 57.4609C238.82 58.2188 238.5 58.8828 238.102 59.4531C237.711 60.0156 237.234 60.4531 236.672 60.7656C236.109 61.0781 235.453 61.2344 234.703 61.2344C233.914 61.2344 233.211 61.0742 232.594 60.7539C231.984 60.4336 231.469 59.9844 231.047 59.4062C230.633 58.8281 230.316 58.1484 230.098 57.3672C229.879 56.5859 229.77 55.7344 229.77 54.8125ZM233.145 54.5664V54.8125C233.145 55.3359 233.184 55.8242 233.262 56.2773C233.348 56.7305 233.484 57.1328 233.672 57.4844C233.867 57.8281 234.117 58.0977 234.422 58.293C234.734 58.4805 235.113 58.5742 235.559 58.5742C236.137 58.5742 236.613 58.4453 236.988 58.1875C237.363 57.9219 237.648 57.5586 237.844 57.0977C238.047 56.6367 238.164 56.1055 238.195 55.5039V53.9688C238.172 53.4766 238.102 53.0352 237.984 52.6445C237.875 52.2461 237.711 51.9062 237.492 51.625C237.281 51.3438 237.016 51.125 236.695 50.9688C236.383 50.8125 236.012 50.7344 235.582 50.7344C235.145 50.7344 234.77 50.8359 234.457 51.0391C234.145 51.2344 233.891 51.5039 233.695 51.8477C233.508 52.1914 233.367 52.5977 233.273 53.0664C233.188 53.5273 233.145 54.0273 233.145 54.5664ZM247.383 48.3203V61H243.996V48.3203H247.383ZM243.785 45.0156C243.785 44.5234 243.957 44.1172 244.301 43.7969C244.645 43.4766 245.105 43.3164 245.684 43.3164C246.254 43.3164 246.711 43.4766 247.055 43.7969C247.406 44.1172 247.582 44.5234 247.582 45.0156C247.582 45.5078 247.406 45.9141 247.055 46.2344C246.711 46.5547 246.254 46.7148 245.684 46.7148C245.105 46.7148 244.645 46.5547 244.301 46.2344C243.957 45.9141 243.785 45.5078 243.785 45.0156ZM249.633 54.7891V54.543C249.633 53.6133 249.766 52.7578 250.031 51.9766C250.297 51.1875 250.684 50.5039 251.191 49.9258C251.699 49.3477 252.324 48.8984 253.066 48.5781C253.809 48.25 254.66 48.0859 255.621 48.0859C256.582 48.0859 257.438 48.25 258.188 48.5781C258.938 48.8984 259.566 49.3477 260.074 49.9258C260.59 50.5039 260.98 51.1875 261.246 51.9766C261.512 52.7578 261.645 53.6133 261.645 54.543V54.7891C261.645 55.7109 261.512 56.5664 261.246 57.3555C260.98 58.1367 260.59 58.8203 260.074 59.4062C259.566 59.9844 258.941 60.4336 258.199 60.7539C257.457 61.0742 256.605 61.2344 255.645 61.2344C254.684 61.2344 253.828 61.0742 253.078 60.7539C252.336 60.4336 251.707 59.9844 251.191 59.4062C250.684 58.8203 250.297 58.1367 250.031 57.3555C249.766 56.5664 249.633 55.7109 249.633 54.7891ZM253.008 54.543V54.7891C253.008 55.3203 253.055 55.8164 253.148 56.2773C253.242 56.7383 253.391 57.1445 253.594 57.4961C253.805 57.8398 254.078 58.1094 254.414 58.3047C254.75 58.5 255.16 58.5977 255.645 58.5977C256.113 58.5977 256.516 58.5 256.852 58.3047C257.188 58.1094 257.457 57.8398 257.66 57.4961C257.863 57.1445 258.012 56.7383 258.105 56.2773C258.207 55.8164 258.258 55.3203 258.258 54.7891V54.543C258.258 54.0273 258.207 53.543 258.105 53.0898C258.012 52.6289 257.859 52.2227 257.648 51.8711C257.445 51.5117 257.176 51.2305 256.84 51.0273C256.504 50.8242 256.098 50.7227 255.621 50.7227C255.145 50.7227 254.738 50.8242 254.402 51.0273C254.074 51.2305 253.805 51.5117 253.594 51.8711C253.391 52.2227 253.242 52.6289 253.148 53.0898C253.055 53.543 253.008 54.0273 253.008 54.543Z" fill="#888888"/>
<path d="M109.219 107.422H100.734V101.07H109.219C110.375 101.07 111.312 100.875 112.031 100.484C112.75 100.094 113.273 99.5547 113.602 98.8672C113.945 98.1641 114.117 97.375 114.117 96.5C114.117 95.5625 113.945 94.6953 113.602 93.8984C113.273 93.1016 112.75 92.4609 112.031 91.9766C111.312 91.4766 110.375 91.2266 109.219 91.2266H103.828V119H95.6016V84.875H109.219C111.953 84.875 114.305 85.375 116.273 86.375C118.258 87.375 119.781 88.75 120.844 90.5C121.906 92.2344 122.438 94.2188 122.438 96.4531C122.438 98.6562 121.906 100.578 120.844 102.219C119.781 103.859 118.258 105.141 116.273 106.062C114.305 106.969 111.953 107.422 109.219 107.422ZM134.461 99.9219V119H126.562V93.6406H133.945L134.461 99.9219ZM141.961 93.4531L141.82 100.789C141.508 100.758 141.086 100.719 140.555 100.672C140.023 100.625 139.578 100.602 139.219 100.602C138.297 100.602 137.5 100.711 136.828 100.93C136.172 101.133 135.625 101.445 135.188 101.867C134.766 102.273 134.453 102.789 134.25 103.414C134.062 104.039 133.977 104.766 133.992 105.594L132.562 104.656C132.562 102.953 132.727 101.406 133.055 100.016C133.398 98.6094 133.883 97.3984 134.508 96.3828C135.133 95.3516 135.891 94.5625 136.781 94.0156C137.672 93.4531 138.672 93.1719 139.781 93.1719C140.172 93.1719 140.555 93.1953 140.93 93.2422C141.32 93.2891 141.664 93.3594 141.961 93.4531ZM142.852 106.578V106.086C142.852 104.227 143.117 102.516 143.648 100.953C144.18 99.375 144.961 98.0078 145.992 96.8516C147.023 95.6953 148.297 94.7969 149.812 94.1562C151.328 93.5 153.078 93.1719 155.062 93.1719C157.062 93.1719 158.82 93.5 160.336 94.1562C161.867 94.7969 163.148 95.6953 164.18 96.8516C165.211 98.0078 165.992 99.375 166.523 100.953C167.055 102.516 167.32 104.227 167.32 106.086V106.578C167.32 108.422 167.055 110.133 166.523 111.711C165.992 113.273 165.211 114.641 164.18 115.812C163.148 116.969 161.875 117.867 160.359 118.508C158.844 119.148 157.094 119.469 155.109 119.469C153.125 119.469 151.367 119.148 149.836 118.508C148.305 117.867 147.023 116.969 145.992 115.812C144.961 114.641 144.18 113.273 143.648 111.711C143.117 110.133 142.852 108.422 142.852 106.578ZM150.75 106.086V106.578C150.75 107.531 150.82 108.422 150.961 109.25C151.102 110.078 151.336 110.805 151.664 111.43C151.992 112.039 152.438 112.516 153 112.859C153.562 113.203 154.266 113.375 155.109 113.375C155.938 113.375 156.625 113.203 157.172 112.859C157.734 112.516 158.18 112.039 158.508 111.43C158.836 110.805 159.07 110.078 159.211 109.25C159.352 108.422 159.422 107.531 159.422 106.578V106.086C159.422 105.164 159.352 104.297 159.211 103.484C159.07 102.656 158.836 101.93 158.508 101.305C158.18 100.664 157.734 100.164 157.172 99.8047C156.609 99.4453 155.906 99.2656 155.062 99.2656C154.234 99.2656 153.539 99.4453 152.977 99.8047C152.43 100.164 151.992 100.664 151.664 101.305C151.336 101.93 151.102 102.656 150.961 103.484C150.82 104.297 150.75 105.164 150.75 106.086ZM171.422 93.6406H179.344V119.82C179.344 121.852 178.953 123.562 178.172 124.953C177.391 126.359 176.273 127.422 174.82 128.141C173.367 128.875 171.633 129.242 169.617 129.242C168.945 129.242 168.328 129.211 167.766 129.148C167.188 129.102 166.555 129 165.867 128.844V122.867C166.273 122.93 166.648 122.977 166.992 123.008C167.336 123.055 167.711 123.078 168.117 123.078C168.836 123.078 169.438 122.961 169.922 122.727C170.406 122.492 170.773 122.133 171.023 121.648C171.289 121.164 171.422 120.555 171.422 119.82V93.6406ZM170.836 87.1016C170.836 85.9766 171.242 85.0547 172.055 84.3359C172.867 83.6172 173.922 83.2578 175.219 83.2578C176.516 83.2578 177.57 83.6172 178.383 84.3359C179.195 85.0547 179.602 85.9766 179.602 87.1016C179.602 88.2266 179.195 89.1484 178.383 89.8672C177.57 90.5859 176.516 90.9453 175.219 90.9453C173.922 90.9453 172.867 90.5859 172.055 89.8672C171.242 89.1484 170.836 88.2266 170.836 87.1016ZM196.102 119.469C194.039 119.469 192.195 119.148 190.57 118.508C188.945 117.852 187.57 116.953 186.445 115.812C185.336 114.672 184.484 113.359 183.891 111.875C183.312 110.391 183.023 108.82 183.023 107.164V106.273C183.023 104.414 183.281 102.695 183.797 101.117C184.312 99.5234 185.078 98.1328 186.094 96.9453C187.109 95.7578 188.383 94.8359 189.914 94.1797C191.445 93.5078 193.227 93.1719 195.258 93.1719C197.055 93.1719 198.664 93.4609 200.086 94.0391C201.508 94.6172 202.711 95.4453 203.695 96.5234C204.695 97.6016 205.453 98.9062 205.969 100.438C206.5 101.969 206.766 103.688 206.766 105.594V108.805H186.047V103.859H199.055V103.25C199.07 102.406 198.922 101.688 198.609 101.094C198.312 100.5 197.875 100.047 197.297 99.7344C196.719 99.4219 196.016 99.2656 195.188 99.2656C194.328 99.2656 193.617 99.4531 193.055 99.8281C192.508 100.203 192.078 100.719 191.766 101.375C191.469 102.016 191.258 102.758 191.133 103.602C191.008 104.445 190.945 105.336 190.945 106.273V107.164C190.945 108.102 191.07 108.953 191.32 109.719C191.586 110.484 191.961 111.141 192.445 111.688C192.945 112.219 193.539 112.633 194.227 112.93C194.93 113.227 195.727 113.375 196.617 113.375C197.695 113.375 198.758 113.172 199.805 112.766C200.852 112.359 201.75 111.688 202.5 110.75L206.086 115.016C205.57 115.75 204.836 116.461 203.883 117.148C202.945 117.836 201.82 118.398 200.508 118.836C199.195 119.258 197.727 119.469 196.102 119.469ZM220.688 113.375C221.422 113.375 222.047 113.242 222.562 112.977C223.094 112.695 223.492 112.305 223.758 111.805C224.039 111.289 224.172 110.672 224.156 109.953H231.586C231.602 111.859 231.133 113.531 230.18 114.969C229.242 116.391 227.961 117.5 226.336 118.297C224.727 119.078 222.906 119.469 220.875 119.469C218.891 119.469 217.156 119.148 215.672 118.508C214.188 117.852 212.945 116.945 211.945 115.789C210.961 114.617 210.219 113.25 209.719 111.688C209.234 110.125 208.992 108.43 208.992 106.602V106.062C208.992 104.234 209.234 102.539 209.719 100.977C210.219 99.3984 210.961 98.0312 211.945 96.875C212.945 95.7031 214.18 94.7969 215.648 94.1562C217.133 93.5 218.859 93.1719 220.828 93.1719C222.938 93.1719 224.797 93.5703 226.406 94.3672C228.031 95.1641 229.305 96.3203 230.227 97.8359C231.148 99.3516 231.602 101.188 231.586 103.344H224.156C224.172 102.578 224.055 101.891 223.805 101.281C223.555 100.672 223.164 100.188 222.633 99.8281C222.117 99.4531 221.453 99.2656 220.641 99.2656C219.828 99.2656 219.172 99.4453 218.672 99.8047C218.172 100.164 217.789 100.664 217.523 101.305C217.273 101.93 217.102 102.648 217.008 103.461C216.93 104.273 216.891 105.141 216.891 106.062V106.602C216.891 107.539 216.93 108.422 217.008 109.25C217.102 110.062 217.281 110.781 217.547 111.406C217.812 112.016 218.195 112.5 218.695 112.859C219.195 113.203 219.859 113.375 220.688 113.375ZM248.32 93.6406V99.125H233.039V93.6406H248.32ZM236.25 87.3359H244.148V110.727C244.148 111.398 244.227 111.922 244.383 112.297C244.539 112.656 244.805 112.914 245.18 113.07C245.57 113.211 246.086 113.281 246.727 113.281C247.18 113.281 247.555 113.273 247.852 113.258C248.148 113.227 248.43 113.188 248.695 113.141V118.789C248.023 119.008 247.32 119.172 246.586 119.281C245.852 119.406 245.07 119.469 244.242 119.469C242.555 119.469 241.109 119.203 239.906 118.672C238.719 118.141 237.812 117.305 237.188 116.164C236.562 115.023 236.25 113.539 236.25 111.711V87.3359ZM277.406 107.422H268.922V101.07H277.406C278.562 101.07 279.5 100.875 280.219 100.484C280.938 100.094 281.461 99.5547 281.789 98.8672C282.133 98.1641 282.305 97.375 282.305 96.5C282.305 95.5625 282.133 94.6953 281.789 93.8984C281.461 93.1016 280.938 92.4609 280.219 91.9766C279.5 91.4766 278.562 91.2266 277.406 91.2266H272.016V119H263.789V84.875H277.406C280.141 84.875 282.492 85.375 284.461 86.375C286.445 87.375 287.969 88.75 289.031 90.5C290.094 92.2344 290.625 94.2188 290.625 96.4531C290.625 98.6562 290.094 100.578 289.031 102.219C287.969 103.859 286.445 105.141 284.461 106.062C282.492 106.969 280.141 107.422 277.406 107.422ZM302.414 83V119H294.516V83H302.414ZM301.477 105.453L299.625 105.5C299.625 103.719 299.844 102.078 300.281 100.578C300.719 99.0781 301.344 97.7734 302.156 96.6641C302.969 95.5547 303.945 94.6953 305.086 94.0859C306.227 93.4766 307.492 93.1719 308.883 93.1719C310.133 93.1719 311.273 93.3516 312.305 93.7109C313.352 94.0703 314.25 94.6484 315 95.4453C315.766 96.2422 316.352 97.2812 316.758 98.5625C317.18 99.8438 317.391 101.406 317.391 103.25V119H309.445V103.203C309.445 102.172 309.297 101.375 309 100.812C308.719 100.234 308.312 99.8359 307.781 99.6172C307.25 99.3828 306.602 99.2656 305.836 99.2656C304.914 99.2656 304.164 99.4219 303.586 99.7344C303.008 100.047 302.562 100.484 302.25 101.047C301.953 101.594 301.75 102.242 301.641 102.992C301.531 103.742 301.477 104.562 301.477 105.453ZM330.117 93.6406V119H322.195V93.6406H330.117ZM321.727 87.1016C321.727 85.9766 322.133 85.0547 322.945 84.3359C323.758 83.6172 324.812 83.2578 326.109 83.2578C327.406 83.2578 328.461 83.6172 329.273 84.3359C330.086 85.0547 330.492 85.9766 330.492 87.1016C330.492 88.2266 330.086 89.1484 329.273 89.8672C328.461 90.5859 327.406 90.9453 326.109 90.9453C324.812 90.9453 323.758 90.5859 322.945 89.8672C322.133 89.1484 321.727 88.2266 321.727 87.1016ZM343.336 83V119H335.414V83H343.336ZM347.227 106.578V106.086C347.227 104.227 347.492 102.516 348.023 100.953C348.555 99.375 349.336 98.0078 350.367 96.8516C351.398 95.6953 352.672 94.7969 354.188 94.1562C355.703 93.5 357.453 93.1719 359.438 93.1719C361.438 93.1719 363.195 93.5 364.711 94.1562C366.242 94.7969 367.523 95.6953 368.555 96.8516C369.586 98.0078 370.367 99.375 370.898 100.953C371.43 102.516 371.695 104.227 371.695 106.086V106.578C371.695 108.422 371.43 110.133 370.898 111.711C370.367 113.273 369.586 114.641 368.555 115.812C367.523 116.969 366.25 117.867 364.734 118.508C363.219 119.148 361.469 119.469 359.484 119.469C357.5 119.469 355.742 119.148 354.211 118.508C352.68 117.867 351.398 116.969 350.367 115.812C349.336 114.641 348.555 113.273 348.023 111.711C347.492 110.133 347.227 108.422 347.227 106.578ZM355.125 106.086V106.578C355.125 107.531 355.195 108.422 355.336 109.25C355.477 110.078 355.711 110.805 356.039 111.43C356.367 112.039 356.812 112.516 357.375 112.859C357.938 113.203 358.641 113.375 359.484 113.375C360.312 113.375 361 113.203 361.547 112.859C362.109 112.516 362.555 112.039 362.883 111.43C363.211 110.805 363.445 110.078 363.586 109.25C363.727 108.422 363.797 107.531 363.797 106.578V106.086C363.797 105.164 363.727 104.297 363.586 103.484C363.445 102.656 363.211 101.93 362.883 101.305C362.555 100.664 362.109 100.164 361.547 99.8047C360.984 99.4453 360.281 99.2656 359.438 99.2656C358.609 99.2656 357.914 99.4453 357.352 99.8047C356.805 100.164 356.367 100.664 356.039 101.305C355.711 101.93 355.477 102.656 355.336 103.484C355.195 104.297 355.125 105.164 355.125 106.086ZM388.5 111.875C388.5 111.438 388.352 111.062 388.055 110.75C387.773 110.422 387.273 110.125 386.555 109.859C385.836 109.578 384.828 109.297 383.531 109.016C382.297 108.75 381.133 108.398 380.039 107.961C378.961 107.523 378.016 106.992 377.203 106.367C376.391 105.742 375.75 105 375.281 104.141C374.828 103.281 374.602 102.297 374.602 101.188C374.602 100.109 374.828 99.0938 375.281 98.1406C375.75 97.1719 376.43 96.3203 377.32 95.5859C378.227 94.8359 379.328 94.25 380.625 93.8281C381.922 93.3906 383.398 93.1719 385.055 93.1719C387.336 93.1719 389.305 93.5234 390.961 94.2266C392.617 94.9141 393.891 95.8828 394.781 97.1328C395.688 98.3672 396.141 99.7969 396.141 101.422H388.242C388.242 100.781 388.133 100.234 387.914 99.7812C387.711 99.3281 387.375 98.9844 386.906 98.75C386.438 98.5 385.812 98.375 385.031 98.375C384.484 98.375 383.984 98.4766 383.531 98.6797C383.094 98.8828 382.742 99.1641 382.477 99.5234C382.211 99.8828 382.078 100.305 382.078 100.789C382.078 101.133 382.156 101.445 382.312 101.727C382.484 101.992 382.742 102.242 383.086 102.477C383.43 102.695 383.867 102.898 384.398 103.086C384.93 103.258 385.57 103.414 386.32 103.555C388.023 103.867 389.617 104.312 391.102 104.891C392.586 105.469 393.789 106.289 394.711 107.352C395.648 108.414 396.117 109.844 396.117 111.641C396.117 112.766 395.859 113.805 395.344 114.758C394.828 115.695 394.086 116.523 393.117 117.242C392.148 117.945 390.984 118.492 389.625 118.883C388.266 119.273 386.734 119.469 385.031 119.469C382.609 119.469 380.562 119.039 378.891 118.18C377.219 117.305 375.953 116.211 375.094 114.898C374.25 113.57 373.828 112.227 373.828 110.867H381.188C381.219 111.648 381.406 112.289 381.75 112.789C382.109 113.289 382.586 113.656 383.18 113.891C383.773 114.125 384.461 114.242 385.242 114.242C385.961 114.242 386.555 114.141 387.023 113.938C387.508 113.734 387.875 113.461 388.125 113.117C388.375 112.758 388.5 112.344 388.5 111.875ZM398.836 106.578V106.086C398.836 104.227 399.102 102.516 399.633 100.953C400.164 99.375 400.945 98.0078 401.977 96.8516C403.008 95.6953 404.281 94.7969 405.797 94.1562C407.312 93.5 409.062 93.1719 411.047 93.1719C413.047 93.1719 414.805 93.5 416.32 94.1562C417.852 94.7969 419.133 95.6953 420.164 96.8516C421.195 98.0078 421.977 99.375 422.508 100.953C423.039 102.516 423.305 104.227 423.305 106.086V106.578C423.305 108.422 423.039 110.133 422.508 111.711C421.977 113.273 421.195 114.641 420.164 115.812C419.133 116.969 417.859 117.867 416.344 118.508C414.828 119.148 413.078 119.469 411.094 119.469C409.109 119.469 407.352 119.148 405.82 118.508C404.289 117.867 403.008 116.969 401.977 115.812C400.945 114.641 400.164 113.273 399.633 111.711C399.102 110.133 398.836 108.422 398.836 106.578ZM406.734 106.086V106.578C406.734 107.531 406.805 108.422 406.945 109.25C407.086 110.078 407.32 110.805 407.648 111.43C407.977 112.039 408.422 112.516 408.984 112.859C409.547 113.203 410.25 113.375 411.094 113.375C411.922 113.375 412.609 113.203 413.156 112.859C413.719 112.516 414.164 112.039 414.492 111.43C414.82 110.805 415.055 110.078 415.195 109.25C415.336 108.422 415.406 107.531 415.406 106.578V106.086C415.406 105.164 415.336 104.297 415.195 103.484C415.055 102.656 414.82 101.93 414.492 101.305C414.164 100.664 413.719 100.164 413.156 99.8047C412.594 99.4453 411.891 99.2656 411.047 99.2656C410.219 99.2656 409.523 99.4453 408.961 99.8047C408.414 100.164 407.977 100.664 407.648 101.305C407.32 101.93 407.086 102.656 406.945 103.484C406.805 104.297 406.734 105.164 406.734 106.086ZM434.789 98.5156V128.75H426.891V93.6406H434.25L434.789 98.5156ZM450.352 106.016V106.508C450.352 108.352 450.141 110.062 449.719 111.641C449.297 113.219 448.672 114.594 447.844 115.766C447.016 116.938 445.984 117.852 444.75 118.508C443.531 119.148 442.117 119.469 440.508 119.469C438.992 119.469 437.688 119.133 436.594 118.461C435.5 117.789 434.586 116.859 433.852 115.672C433.117 114.484 432.523 113.125 432.07 111.594C431.617 110.062 431.258 108.445 430.992 106.742V106.109C431.258 104.281 431.617 102.586 432.07 101.023C432.523 99.4453 433.117 98.0703 433.852 96.8984C434.586 95.7266 435.492 94.8125 436.57 94.1562C437.664 93.5 438.969 93.1719 440.484 93.1719C442.094 93.1719 443.508 93.4766 444.727 94.0859C445.961 94.6953 446.992 95.5703 447.82 96.7109C448.664 97.8359 449.297 99.1875 449.719 100.766C450.141 102.344 450.352 104.094 450.352 106.016ZM442.453 106.508V106.016C442.453 105.031 442.383 104.133 442.242 103.32C442.102 102.492 441.875 101.773 441.562 101.164C441.266 100.555 440.867 100.086 440.367 99.7578C439.867 99.4297 439.25 99.2656 438.516 99.2656C437.672 99.2656 436.961 99.3984 436.383 99.6641C435.82 99.9141 435.367 100.305 435.023 100.836C434.695 101.352 434.461 102 434.32 102.781C434.195 103.547 434.141 104.445 434.156 105.477V107.398C434.125 108.586 434.242 109.633 434.508 110.539C434.773 111.43 435.234 112.125 435.891 112.625C436.547 113.125 437.438 113.375 438.562 113.375C439.312 113.375 439.938 113.203 440.438 112.859C440.938 112.5 441.336 112.008 441.633 111.383C441.93 110.742 442.141 110.008 442.266 109.18C442.391 108.352 442.453 107.461 442.453 106.508ZM461.602 83V119H453.703V83H461.602ZM460.664 105.453L458.812 105.5C458.812 103.719 459.031 102.078 459.469 100.578C459.906 99.0781 460.531 97.7734 461.344 96.6641C462.156 95.5547 463.133 94.6953 464.273 94.0859C465.414 93.4766 466.68 93.1719 468.07 93.1719C469.32 93.1719 470.461 93.3516 471.492 93.7109C472.539 94.0703 473.438 94.6484 474.188 95.4453C474.953 96.2422 475.539 97.2812 475.945 98.5625C476.367 99.8438 476.578 101.406 476.578 103.25V119H468.633V103.203C468.633 102.172 468.484 101.375 468.188 100.812C467.906 100.234 467.5 99.8359 466.969 99.6172C466.438 99.3828 465.789 99.2656 465.023 99.2656C464.102 99.2656 463.352 99.4219 462.773 99.7344C462.195 100.047 461.75 100.484 461.438 101.047C461.141 101.594 460.938 102.242 460.828 102.992C460.719 103.742 460.664 104.562 460.664 105.453ZM488.742 116.023L495.305 93.6406H503.789L493.594 122.773C493.375 123.414 493.086 124.102 492.727 124.836C492.367 125.586 491.875 126.297 491.25 126.969C490.625 127.641 489.82 128.188 488.836 128.609C487.867 129.031 486.664 129.242 485.227 129.242C484.461 129.242 483.898 129.203 483.539 129.125C483.195 129.062 482.664 128.945 481.945 128.773V123.125C482.148 123.125 482.32 123.125 482.461 123.125C482.617 123.125 482.789 123.125 482.977 123.125C483.82 123.125 484.492 123.039 484.992 122.867C485.508 122.695 485.898 122.445 486.164 122.117C486.445 121.789 486.664 121.391 486.82 120.922L488.742 116.023ZM487.078 93.6406L492.07 111.383L492.938 119.75H487.641L478.617 93.6406H487.078Z" fill="black"/>
<path d="M1134 0H1348C1356.28 0 1363 6.71573 1363 15V148C1363 156.284 1356.28 163 1348 163H1134V0Z" fill="#FF6F61"/>
<path d="M1234.26 103.786H1262.74V109.357H1234.26V103.786ZM1239.96 114.929H1257.04V120.5H1239.96V114.929ZM1248.5 42.5C1240.95 42.5 1233.71 45.4349 1228.37 50.6592C1223.03 55.8834 1220.03 62.969 1220.03 70.3571C1219.84 74.4057 1220.63 78.4412 1222.34 82.1315C1224.05 85.8219 1226.64 89.0616 1229.88 91.5843C1232.73 94.175 1234.26 95.6514 1234.26 98.2143H1239.96C1239.96 93.0886 1236.8 90.2193 1233.72 87.4614C1231.06 85.4676 1228.94 82.8658 1227.55 79.8838C1226.15 76.9019 1225.53 73.6308 1225.72 70.3571C1225.72 64.4466 1228.12 58.7781 1232.39 54.5988C1236.67 50.4194 1242.46 48.0714 1248.5 48.0714C1254.54 48.0714 1260.33 50.4194 1264.61 54.5988C1268.88 58.7781 1271.28 64.4466 1271.28 70.3571C1271.47 73.6333 1270.84 76.9059 1269.44 79.888C1268.04 82.8701 1265.92 85.4706 1263.25 87.4614C1260.2 90.2471 1257.04 93.0329 1257.04 98.2143H1262.74C1262.74 95.6514 1264.25 94.175 1267.12 91.5564C1270.36 89.0381 1272.94 85.8031 1274.66 82.1176C1276.37 78.4321 1277.16 74.4014 1276.97 70.3571C1276.97 66.6989 1276.24 63.0765 1274.81 59.6967C1273.37 56.3169 1271.28 53.2459 1268.63 50.6592C1265.99 48.0724 1262.85 46.0205 1259.4 44.6205C1255.94 43.2205 1252.24 42.5 1248.5 42.5Z" fill="white"/>
</svg>
